<svg width="264" height="80" viewBox="0 0 264 80" fill="none" xmlns="http://www.w3.org/2000/svg">
<g clip-path="url(#clip0_2020_2184)">
<path d="M49.5097 46.4966V28.9688H54.4039V46.4966H49.5097ZM42.9463 40.0469V35.4184H61.0052V40.0469H42.9463Z" fill="#73768C"/>
<path d="M27.5946 51.4678C25.4194 51.4678 23.4719 50.9367 21.752 49.8744C20.0321 48.7868 18.6789 47.2187 17.6925 45.17C16.7061 43.1212 16.2129 40.6426 16.2129 37.7339C16.2129 34.8253 16.7061 32.3466 17.6925 30.2979C18.6789 28.2492 20.0321 26.6937 21.752 25.6314C23.4719 24.5438 25.4194 24 27.5946 24C29.795 24 31.7426 24.5438 33.4372 25.6314C35.1571 26.6937 36.5102 28.2492 37.4967 30.2979C38.4831 32.3466 38.9763 34.8253 38.9763 37.7339C38.9763 40.6426 38.4831 43.1212 37.4967 45.17C36.5102 47.2187 35.1571 48.7868 33.4372 49.8744C31.7426 50.9367 29.795 51.4678 27.5946 51.4678ZM27.5946 46.2702C28.6316 46.2702 29.5295 45.9793 30.2883 45.3976C31.0723 44.8159 31.6794 43.8927 32.1093 42.628C32.5646 41.3634 32.7922 39.732 32.7922 37.7339C32.7922 35.7358 32.5646 34.1044 32.1093 32.8398C31.6794 31.5751 31.0723 30.652 30.2883 30.0702C29.5295 29.4885 28.6316 29.1976 27.5946 29.1976C26.5829 29.1976 25.685 29.4885 24.9009 30.0702C24.1421 30.652 23.5351 31.5751 23.0798 32.8398C22.6499 34.1044 22.4349 35.7358 22.4349 37.7339C22.4349 39.732 22.6499 41.3634 23.0798 42.628C23.5351 43.8927 24.1421 44.8159 24.9009 45.3976C25.685 45.9793 26.5829 46.2702 27.5946 46.2702Z" fill="#73768C"/>
<path d="M5.45306 51.0104V26.7295L8.10879 29.3852H0.141602V24.4531H11.5992V51.0104H5.45306Z" fill="#73768C"/>
<path d="M156.701 42.0443L157.978 41.2908C158.871 42.9374 159.911 43.7607 161.097 43.7607C161.864 43.7607 162.52 43.5165 163.064 43.0281C163.609 42.5397 163.881 41.9327 163.881 41.2071C163.881 40.6349 163.651 40.0558 163.19 39.4697C162.73 38.8836 161.962 38.1929 160.888 37.3975C159.827 36.5881 159.108 35.9881 158.732 35.5973C158.369 35.1926 158.097 34.767 157.915 34.3205C157.748 33.86 157.664 33.3995 157.664 32.939C157.664 31.9622 158.006 31.1388 158.69 30.469C159.387 29.7852 160.26 29.4434 161.306 29.4434C162.129 29.4434 162.848 29.6527 163.462 30.0713C164.076 30.476 164.669 31.083 165.241 31.8924L164.027 32.8343C163.637 32.304 163.232 31.8645 162.813 31.5156C162.395 31.1667 161.878 30.9923 161.264 30.9923C160.664 30.9923 160.169 31.1737 159.778 31.5365C159.401 31.8994 159.213 32.3599 159.213 32.918C159.213 33.4762 159.38 33.9646 159.715 34.3833C160.064 34.788 160.839 35.4368 162.039 36.3299C163.253 37.223 164.132 38.0464 164.676 38.7999C165.234 39.5534 165.513 40.3489 165.513 41.1861C165.513 42.2746 165.088 43.2235 164.237 44.0329C163.399 44.8283 162.423 45.226 161.306 45.226C159.339 45.226 157.804 44.1654 156.701 42.0443Z" fill="white"/>
<path d="M138.084 29.8203H141.077C142.752 29.8203 143.896 29.8971 144.51 30.0506C145.124 30.1901 145.647 30.4273 146.08 30.7622C146.526 31.0972 146.875 31.5297 147.127 32.06C147.378 32.5903 147.503 33.1764 147.503 33.8183C147.503 35.1021 147.05 36.1138 146.143 36.8534C145.236 37.5791 143.952 37.914 142.291 37.8581L147.713 44.8494H145.85L140.449 37.8581H139.591V44.8494H138.084V29.8203ZM139.591 31.2855V36.3929H142.187C143.47 36.4069 144.412 36.2115 145.012 35.8068C145.626 35.3882 145.933 34.7323 145.933 33.8392C145.933 32.9461 145.633 32.2972 145.033 31.8926C144.433 31.4879 143.505 31.2855 142.249 31.2855H139.591Z" fill="white"/>
<path d="M121.125 29.2129L128.137 44.849H126.525L124.16 39.7207H117.671L115.327 44.849H113.652L120.748 29.2129H121.125ZM120.937 32.5411L118.362 38.1927H123.49L120.937 32.5411Z" fill="white"/>
<path d="M96.2344 29.8203H104.858V31.3065H97.7415V35.9952H104.796V37.4604H97.7415V43.3632H104.796V44.8494H96.2344V29.8203Z" fill="white"/>
<path d="M75.1182 29.8203H76.8555L80.686 36.0161L84.4747 29.8203H86.212L81.4396 37.6698V44.8494H79.9744V37.6698L75.1182 29.8203Z" fill="white"/>
<path d="M215.049 71.8854L216.339 72.5526C215.064 74.9249 213.181 76.111 210.69 76.111C208.911 76.111 207.443 75.5031 206.286 74.2873C205.13 73.0567 204.552 71.5814 204.552 69.8615C204.552 68.1416 205.13 66.6664 206.286 65.4358C207.458 64.2052 208.896 63.5898 210.601 63.5898C212.321 63.5898 213.759 64.1607 214.916 65.3023C216.087 66.444 216.695 68.0008 216.739 69.9728H206.109C206.153 71.3961 206.598 72.5452 207.443 73.42C208.303 74.2799 209.341 74.7099 210.557 74.7099C212.558 74.7099 214.056 73.7684 215.049 71.8854ZM215.049 68.6606C214.842 67.5338 214.323 66.6516 213.492 66.014C212.662 65.3765 211.706 65.0577 210.623 65.0577C208.399 65.0577 206.946 66.2587 206.264 68.6606H215.049Z" fill="white"/>
<path d="M200.917 66.3476L199.716 67.1038C198.678 65.7249 197.254 65.0354 195.446 65.0354C194.022 65.0354 192.829 65.4951 191.865 66.4143C190.901 67.3188 190.419 68.4456 190.419 69.7948C190.419 71.1441 190.894 72.3005 191.843 73.2643C192.792 74.228 193.993 74.7099 195.446 74.7099C197.18 74.7099 198.604 74.0204 199.716 72.6416L200.917 73.4422C200.324 74.3022 199.523 74.9619 198.515 75.4216C197.521 75.8812 196.446 76.111 195.29 76.111C193.466 76.111 191.939 75.5105 190.708 74.3096C189.493 73.1086 188.885 71.6408 188.885 69.906C188.885 68.1713 189.5 66.6886 190.731 65.458C191.976 64.2126 193.57 63.5898 195.512 63.5898C196.654 63.5898 197.707 63.8345 198.67 64.3238C199.649 64.813 200.398 65.4877 200.917 66.3476Z" fill="white"/>
<path d="M174.465 63.9012H175.999V66.014C177.215 64.3979 178.69 63.5898 180.425 63.5898C181.315 63.5898 182.115 63.8345 182.827 64.3238C183.539 64.7982 184.043 65.4284 184.339 66.2142C184.636 66.9852 184.784 68.1268 184.784 69.6391V75.7107H183.272V70.084C183.272 68.7051 183.205 67.771 183.072 67.2817C182.953 66.7924 182.76 66.3773 182.494 66.0363C182.241 65.6952 181.915 65.4358 181.515 65.2579C181.115 65.0799 180.625 64.991 180.047 64.991C179.484 64.991 178.928 65.1318 178.379 65.4135C177.83 65.6952 177.363 66.0881 176.978 66.5923C176.592 67.0964 176.333 67.6153 176.2 68.1491C176.066 68.6828 175.999 69.7578 175.999 71.3739V75.7107H174.465V63.9012Z" fill="white"/>
<path d="M168.607 71.8854L169.897 72.5526C168.622 74.9249 166.739 76.111 164.248 76.111C162.468 76.111 161.001 75.5031 159.844 74.2873C158.688 73.0567 158.109 71.5814 158.109 69.8615C158.109 68.1416 158.688 66.6664 159.844 65.4358C161.015 64.2052 162.454 63.5898 164.159 63.5898C165.879 63.5898 167.317 64.1607 168.473 65.3023C169.645 66.444 170.252 68.0008 170.297 69.9728H159.666C159.711 71.3961 160.155 72.5452 161.001 73.42C161.861 74.2799 162.898 74.7099 164.114 74.7099C166.116 74.7099 167.613 73.7684 168.607 71.8854ZM168.607 68.6606C168.399 67.5338 167.88 66.6516 167.05 66.014C166.22 65.3765 165.263 65.0577 164.181 65.0577C161.957 65.0577 160.504 66.2587 159.822 68.6606H168.607Z" fill="white"/>
<path d="M152.168 60.6095C152.168 60.2685 152.287 59.9719 152.524 59.7199C152.776 59.4678 153.072 59.3418 153.413 59.3418C153.769 59.3418 154.066 59.4678 154.303 59.7199C154.555 59.9571 154.681 60.2536 154.681 60.6095C154.681 60.9505 154.555 61.247 154.303 61.4991C154.066 61.7363 153.769 61.8549 153.413 61.8549C153.072 61.8549 152.776 61.7289 152.524 61.4768C152.287 61.2248 152.168 60.9357 152.168 60.6095ZM152.657 63.901H154.192V75.7105H152.657V63.901Z" fill="white"/>
<path d="M144.277 63.9012H145.834V65.6137C146.249 64.9168 146.65 64.4053 147.035 64.0791C147.435 63.7529 147.873 63.5898 148.347 63.5898C148.837 63.5898 149.326 63.7233 149.815 63.9902L149.014 65.2801C148.792 65.1466 148.562 65.0799 148.325 65.0799C147.865 65.0799 147.428 65.3172 147.013 65.7916C146.613 66.2661 146.316 66.8814 146.123 67.6375C145.931 68.3789 145.834 69.7355 145.834 71.7075V75.7107H144.277V63.9012Z" fill="white"/>
<path d="M138.997 71.8854L140.287 72.5526C139.012 74.9249 137.129 76.111 134.638 76.111C132.859 76.111 131.391 75.5031 130.235 74.2873C129.078 73.0567 128.5 71.5814 128.5 69.8615C128.5 68.1416 129.078 66.6664 130.235 65.4358C131.406 64.2052 132.844 63.5898 134.549 63.5898C136.269 63.5898 137.707 64.1607 138.864 65.3023C140.035 66.444 140.643 68.0008 140.688 69.9728H130.057C130.101 71.3961 130.546 72.5452 131.391 73.42C132.251 74.2799 133.289 74.7099 134.505 74.7099C136.506 74.7099 138.004 73.7684 138.997 71.8854ZM138.997 68.6606C138.79 67.5338 138.271 66.6516 137.441 66.014C136.61 65.3765 135.654 65.0577 134.572 65.0577C132.348 65.0577 130.895 66.2587 130.212 68.6606H138.997Z" fill="white"/>
<path d="M112.584 63.9012H114.096V66.0585C115.297 64.4127 116.862 63.5898 118.789 63.5898C120.45 63.5898 121.88 64.2052 123.081 65.4358C124.282 66.6516 124.883 68.1194 124.883 69.8393C124.883 71.5592 124.29 73.0345 123.104 74.2651C121.917 75.4957 120.494 76.111 118.833 76.111C117.025 76.111 115.446 75.303 114.096 73.6868V80.0253H112.584V63.9012ZM123.37 69.8616C123.37 68.542 122.911 67.4151 121.992 66.4811C121.087 65.5321 119.975 65.0577 118.656 65.0577C117.336 65.0577 116.224 65.5247 115.32 66.4588C114.43 67.3781 113.985 68.5197 113.985 69.8838C113.985 71.2478 114.445 72.3969 115.364 73.331C116.283 74.2503 117.38 74.7099 118.656 74.7099C119.945 74.7099 121.05 74.2428 121.969 73.3088C122.903 72.3599 123.37 71.2108 123.37 69.8616Z" fill="white"/>
<path d="M104.168 70.7726L100.743 75.7099H98.9414L103.256 69.4827L99.364 63.9004H101.188L104.168 68.1705L107.126 63.9004H108.949L105.08 69.4604L109.461 75.7099H107.615L104.168 70.7726Z" fill="white"/>
<path d="M87.5508 59.7441H96.7137V61.3232H89.1521V66.305H96.647V67.8618H89.1521V74.1335H96.647V75.7125H87.5508V59.7441Z" fill="white"/>
<path d="M65.4805 63.9012H67.015V66.014C68.2308 64.3979 69.7061 63.5898 71.4408 63.5898C72.3304 63.5898 73.1311 63.8345 73.8427 64.3238C74.5544 64.7982 75.0585 65.4284 75.3551 66.2142C75.6516 66.9852 75.7999 68.1268 75.7999 69.6391V75.7107H74.2875V70.084C74.2875 68.7051 74.2208 67.771 74.0874 67.2817C73.9688 66.7924 73.776 66.3773 73.5091 66.0363C73.2571 65.6952 72.9309 65.4358 72.5306 65.2579C72.1303 65.0799 71.641 64.991 71.0627 64.991C70.4993 64.991 69.9433 65.1318 69.3947 65.4135C68.8461 65.6952 68.3791 66.0881 67.9936 66.5923C67.6081 67.0964 67.3486 67.6153 67.2152 68.1491C67.0818 68.6828 67.015 69.7578 67.015 71.3739V75.7107H65.4805V63.9012Z" fill="white"/>
<path d="M59.5237 63.9012H61.0583V73.0196C61.0583 74.6358 60.9175 75.8219 60.6358 76.5781C60.354 77.3342 59.9463 77.9644 59.4125 78.4685C58.8788 78.9726 58.2338 79.3581 57.4777 79.625C56.7215 79.8918 55.8912 80.0253 54.9868 80.0253C51.9028 80.0253 49.8715 78.7947 48.893 76.3334H50.5388C51.3987 77.8754 52.8591 78.6464 54.9201 78.6464C55.9134 78.6464 56.7734 78.4536 57.4999 78.0681C58.2412 77.6826 58.7602 77.1934 59.0567 76.6003C59.3681 75.9924 59.5237 75.0509 59.5237 73.7758V73.2643C58.9159 74.0204 58.1968 74.5839 57.3665 74.9545C56.5362 75.3252 55.6614 75.5105 54.7421 75.5105C53.0222 75.5105 51.5915 74.9249 50.4498 73.7536C49.3081 72.5823 48.7373 71.2034 48.7373 69.6169C48.7373 67.9711 49.3452 66.5552 50.561 65.3691C51.7768 64.1829 53.2446 63.5898 54.9645 63.5898C56.6993 63.5898 58.219 64.3757 59.5237 65.9473V63.9012ZM59.5905 69.6169C59.5905 68.327 59.1531 67.2446 58.2783 66.3699C57.4035 65.4951 56.3212 65.0577 55.0313 65.0577C53.6672 65.0577 52.5329 65.5321 51.6285 66.4811C50.7241 67.4151 50.2719 68.4901 50.2719 69.7059C50.2719 70.9217 50.7093 71.9595 51.584 72.8195C52.4588 73.6646 53.5782 74.0872 54.9423 74.0872C56.3063 74.0872 57.4184 73.672 58.2783 72.8417C59.1531 72.0114 59.5905 70.9365 59.5905 69.6169Z" fill="white"/>
<path d="M42.6836 60.6095C42.6836 60.2685 42.8022 59.9719 43.0394 59.7199C43.2915 59.4678 43.588 59.3418 43.929 59.3418C44.2849 59.3418 44.5814 59.4678 44.8186 59.7199C45.0707 59.9571 45.1967 60.2536 45.1967 60.6095C45.1967 60.9505 45.0707 61.247 44.8186 61.4991C44.5814 61.7363 44.2849 61.8549 43.929 61.8549C43.588 61.8549 43.2915 61.7289 43.0394 61.4768C42.8022 61.2248 42.6836 60.9357 42.6836 60.6095ZM43.1729 63.901H44.7074V75.7105H43.1729V63.901Z" fill="white"/>
<path d="M39.3763 65.1911L38.3977 66.1919C37.5822 65.4061 36.789 65.0132 36.018 65.0132C35.5139 65.0132 35.0914 65.1763 34.7503 65.5025C34.4093 65.8139 34.2388 66.2068 34.2388 66.6812C34.2388 67.1408 34.4167 67.5412 34.7726 67.8822C35.1433 68.2084 35.7734 68.6087 36.663 69.0831C37.5526 69.5428 38.2272 70.0469 38.6868 70.5955C39.1613 71.1292 39.3985 71.789 39.3985 72.5748C39.3985 73.5682 39.0501 74.4059 38.3532 75.088C37.6712 75.77 36.8261 76.111 35.8179 76.111C35.1507 76.111 34.5057 75.9627 33.883 75.6662C33.2751 75.3697 32.7561 74.9545 32.3262 74.4208L33.2825 73.3532C34.0683 74.228 34.8912 74.6654 35.7511 74.6654C36.359 74.6654 36.878 74.4652 37.308 74.0649C37.7379 73.6646 37.9529 73.1976 37.9529 72.6638C37.9529 72.1152 37.7602 71.6704 37.3747 71.3294C37.004 70.9736 36.3739 70.5732 35.4843 70.1284C34.6095 69.6836 33.9497 69.2018 33.5049 68.6828C33.0749 68.1491 32.8599 67.467 32.8599 66.6367C32.8599 65.7916 33.1639 65.0725 33.7718 64.4794C34.3945 63.8864 35.21 63.5898 36.2182 63.5898C37.2412 63.5898 38.2939 64.1236 39.3763 65.1911Z" fill="white"/>
<path d="M27.5803 71.8854L28.8703 72.5526C27.5952 74.9249 25.7122 76.111 23.2213 76.111C21.4421 76.111 19.9742 75.5031 18.8177 74.2873C17.6613 73.0567 17.083 71.5814 17.083 69.8615C17.083 68.1416 17.6613 66.6664 18.8177 65.4358C19.989 64.2052 21.4272 63.5898 23.1323 63.5898C24.8522 63.5898 26.2904 64.1607 27.4469 65.3023C28.6182 66.444 29.2261 68.0008 29.2706 69.9728H18.6398C18.6843 71.3961 19.1291 72.5452 19.9742 73.42C20.8342 74.2799 21.872 74.7099 23.0878 74.7099C25.0894 74.7099 26.5869 73.7684 27.5803 71.8854ZM27.5803 68.6606C27.3728 67.5338 26.8538 66.6516 26.0235 66.014C25.1932 65.3765 24.2369 65.0577 23.1546 65.0577C20.9305 65.0577 19.4775 66.2587 18.7955 68.6606H27.5803Z" fill="white"/>
<path d="M0 75.7125V59.7441H3.31377C5.58226 59.7441 7.24286 59.9146 8.29556 60.2557C9.36308 60.5819 10.2823 61.1082 11.0533 61.8347C11.8243 62.5464 12.4174 63.4212 12.8325 64.459C13.2477 65.4969 13.4553 66.7127 13.4553 68.1064C13.4553 69.4853 13.1291 70.7901 12.4767 72.0207C11.8391 73.2365 10.9644 74.1557 9.85236 74.7784C8.75518 75.4012 7.16872 75.7125 5.09298 75.7125H0ZM1.53457 74.2002H3.38049C5.30797 74.2002 6.70168 74.1038 7.56163 73.9111C8.43641 73.7183 9.19999 73.3403 9.85236 72.7768C10.5047 72.1986 11.0014 71.5017 11.3424 70.6863C11.6835 69.8708 11.854 68.9367 11.854 67.884C11.854 66.8313 11.6538 65.8602 11.2535 64.9706C10.868 64.081 10.312 63.347 9.58548 62.7688C8.85897 62.1906 7.99902 61.8051 7.00563 61.6123C6.02707 61.4047 4.58146 61.3009 2.66881 61.3009H1.53457V74.2002Z" fill="white"/>
</g>
<defs>
<clipPath id="clip0_2020_2184">
<rect width="264" height="80" fill="white"/>
</clipPath>
</defs>
</svg>
