<svg width="110" height="61" viewBox="0 0 110 61" fill="none" xmlns="http://www.w3.org/2000/svg">
<path d="M100.635 42.4478C99.0662 42.4478 97.5541 42.2659 96.0989 41.9021C94.6664 41.5155 93.5295 41.038 92.6882 40.4696L94.4618 36.6497C95.3031 37.1726 96.2922 37.6046 97.429 37.9457C98.5887 38.264 99.7256 38.4232 100.84 38.4232C102.068 38.4232 102.932 38.2754 103.432 37.9798C103.955 37.6842 104.216 37.2749 104.216 36.752C104.216 36.32 104.012 36.0016 103.602 35.797C103.216 35.5696 102.693 35.3991 102.033 35.2854C101.374 35.1717 100.646 35.058 99.8506 34.9443C99.0775 34.8306 98.2931 34.6828 97.4973 34.5009C96.7014 34.2963 95.9738 34.0007 95.3144 33.6142C94.655 33.2276 94.1207 32.7047 93.7114 32.0453C93.3249 31.3859 93.1316 30.5332 93.1316 29.4873C93.1316 28.3277 93.4613 27.3045 94.1207 26.4177C94.8028 25.5309 95.7806 24.8374 97.0539 24.3372C98.3272 23.8142 99.8506 23.5527 101.624 23.5527C102.875 23.5527 104.148 23.6892 105.444 23.962C106.74 24.2349 107.82 24.6328 108.684 25.1557L106.911 28.9416C106.024 28.4186 105.126 28.0662 104.216 27.8843C103.329 27.6796 102.465 27.5773 101.624 27.5773C100.442 27.5773 99.5778 27.7365 99.0321 28.0548C98.4863 28.3731 98.2135 28.7824 98.2135 29.2826C98.2135 29.7374 98.4068 30.0785 98.7933 30.3058C99.2026 30.5332 99.7369 30.7151 100.396 30.8515C101.056 30.988 101.772 31.113 102.545 31.2267C103.341 31.3177 104.137 31.4655 104.932 31.6701C105.728 31.8747 106.445 32.1703 107.081 32.5569C107.741 32.9207 108.275 33.4323 108.684 34.0917C109.093 34.7283 109.298 35.5696 109.298 36.6155C109.298 37.7524 108.957 38.7643 108.275 39.651C107.593 40.5151 106.604 41.1972 105.308 41.6974C104.034 42.1977 102.477 42.4478 100.635 42.4478Z" fill="#73768D"/>
<path d="M87.1435 42.4465C84.9835 42.4465 83.3009 41.9008 82.0958 40.8094C80.8907 39.6952 80.2881 38.0467 80.2881 35.8639V19.7656H85.6087V35.7957C85.6087 36.5688 85.8134 37.1713 86.2227 37.6034C86.6319 38.0126 87.189 38.2173 87.8939 38.2173C88.7352 38.2173 89.4514 37.9899 90.0426 37.5351L91.4751 41.2869C90.9294 41.6734 90.27 41.969 89.4969 42.1736C88.7465 42.3555 87.9621 42.4465 87.1435 42.4465ZM77.4573 28.3264V24.2336H90.179V28.3264H77.4573Z" fill="#73768D"/>
<path d="M67.2302 42.4478C65.1384 42.4478 63.2966 42.0385 61.705 41.2199C60.1361 40.4014 58.9196 39.2872 58.0556 37.8775C57.1915 36.445 56.7595 34.8193 56.7595 33.0003C56.7595 31.1585 57.1802 29.5328 58.0215 28.123C58.8855 26.6905 60.0565 25.5764 61.5344 24.7806C63.0124 23.962 64.6836 23.5527 66.5481 23.5527C68.3444 23.5527 69.9588 23.9393 71.3912 24.7124C72.8465 25.4627 73.9947 26.5541 74.836 27.9866C75.6773 29.3963 76.0979 31.0903 76.0979 33.0685C76.0979 33.2731 76.0866 33.5119 76.0638 33.7847C76.0411 34.0348 76.0184 34.2736 75.9956 34.5009H61.0911V31.3972H73.1989L71.1525 32.3181C71.1525 31.3631 70.9592 30.5332 70.5727 29.8283C70.1861 29.1235 69.6518 28.5778 68.9697 28.1912C68.2875 27.7819 67.4917 27.5773 66.5822 27.5773C65.6727 27.5773 64.8655 27.7819 64.1606 28.1912C63.4785 28.5778 62.9442 29.1348 62.5576 29.8624C62.1711 30.5673 61.9778 31.4086 61.9778 32.3863V33.2049C61.9778 34.2054 62.1938 35.0921 62.6259 35.8652C63.0806 36.6155 63.7059 37.1954 64.5017 37.6046C65.3203 37.9912 66.2753 38.1845 67.3667 38.1845C68.3444 38.1845 69.1971 38.0367 69.9247 37.7411C70.675 37.4455 71.3571 37.0021 71.971 36.4109L74.8019 39.4805C73.9606 40.4355 72.9033 41.1745 71.63 41.6974C70.3567 42.1977 68.8901 42.4478 67.2302 42.4478Z" fill="#73768D"/>
<path d="M45.7136 42.4478C43.6218 42.4478 41.78 42.0385 40.1884 41.2199C38.6195 40.4014 37.403 39.2872 36.539 37.8775C35.6749 36.445 35.2429 34.8193 35.2429 33.0003C35.2429 31.1585 35.6636 29.5328 36.5049 28.123C37.3689 26.6905 38.5399 25.5764 40.0178 24.7806C41.4958 23.962 43.167 23.5527 45.0315 23.5527C46.8278 23.5527 48.4422 23.9393 49.8746 24.7124C51.3298 25.4627 52.4781 26.5541 53.3194 27.9866C54.1607 29.3963 54.5813 31.0903 54.5813 33.0685C54.5813 33.2731 54.57 33.5119 54.5472 33.7847C54.5245 34.0348 54.5018 34.2736 54.479 34.5009H39.5745V31.3972H51.6823L49.6359 32.3181C49.6359 31.3631 49.4426 30.5332 49.0561 29.8283C48.6695 29.1235 48.1352 28.5778 47.4531 28.1912C46.7709 27.7819 45.9751 27.5773 45.0656 27.5773C44.1561 27.5773 43.3489 27.7819 42.644 28.1912C41.9619 28.5778 41.4276 29.1348 41.041 29.8624C40.6545 30.5673 40.4612 31.4086 40.4612 32.3863V33.2049C40.4612 34.2054 40.6772 35.0921 41.1093 35.8652C41.564 36.6155 42.1893 37.1954 42.9851 37.6046C43.8037 37.9912 44.7586 38.1845 45.8501 38.1845C46.8278 38.1845 47.6804 38.0367 48.4081 37.7411C49.1584 37.4455 49.8405 37.0021 50.4544 36.4109L53.2853 39.4805C52.444 40.4355 51.3867 41.1745 50.1134 41.6974C48.8401 42.1977 47.3735 42.4478 45.7136 42.4478Z" fill="#73768D"/>
<path d="M24.2012 23.5527C25.6564 23.5527 26.9411 23.8483 28.0553 24.4395C29.1921 25.0079 30.0789 25.8947 30.7156 27.0998C31.375 28.2822 31.7047 29.8056 31.7047 31.6701V42.1749H26.384V32.4887C26.384 31.0107 26.0771 29.9193 25.4632 29.2144C24.8492 28.5096 23.9852 28.1571 22.8711 28.1571C22.098 28.1571 21.4045 28.339 20.7906 28.7028C20.1766 29.0439 19.6991 29.5669 19.3581 30.2717C19.017 30.9766 18.8465 31.8747 18.8465 32.9661V42.1749H13.5259V32.4887C13.5259 31.0107 13.2189 29.9193 12.605 29.2144C12.0138 28.5096 11.1611 28.1571 10.047 28.1571C9.2739 28.1571 8.5804 28.339 7.96648 28.7028C7.35256 29.0439 6.87507 29.5669 6.53401 30.2717C6.19294 30.9766 6.02241 31.8747 6.02241 32.9661V42.1749H0.701782V23.8256H5.78366V28.8393L4.82868 27.3727C5.46533 26.1221 6.36347 25.1785 7.5231 24.5418C8.70546 23.8824 10.047 23.5527 11.5477 23.5527C13.2303 23.5527 14.6968 23.9848 15.9474 24.8488C17.2207 25.6901 18.062 26.9861 18.4713 28.7369L16.5954 28.2253C17.2094 26.7929 18.1871 25.656 19.5286 24.8147C20.8929 23.9734 22.4504 23.5527 24.2012 23.5527Z" fill="#73768D"/>
<path d="M95.5435 51.0078H96.6443L99.0716 54.9339L101.472 51.0078H102.573L99.5491 55.9817V60.5311H98.6206V55.9817L95.5435 51.0078Z" fill="white"/>
<path d="M89.1491 52.5999L88.4196 53.3029C87.889 52.79 87.3054 52.3965 86.6688 52.1224C86.041 51.8483 85.391 51.7113 84.719 51.7113C84.047 51.7113 83.375 51.8925 82.7029 52.2551C82.0309 52.6176 81.5048 53.1084 81.1246 53.7273C80.7532 54.3375 80.5675 55.0006 80.5675 55.7169C80.5675 56.831 80.9831 57.8037 81.8143 58.6349C82.6543 59.4572 83.7021 59.8684 84.9578 59.8684C85.9127 59.8684 86.7307 59.6031 87.4115 59.0726C88.1012 58.5332 88.5124 57.8037 88.6451 56.8841H85.6077V55.9689H89.7194C89.6929 57.4809 89.2419 58.6614 88.3665 59.5103C87.4911 60.3503 86.346 60.7703 84.9312 60.7703C83.3042 60.7703 82 60.2707 81.0185 59.2715C80.0458 58.2723 79.5594 57.1007 79.5594 55.7567C79.5594 54.4038 80.0458 53.2366 81.0185 52.2551C81.9911 51.2647 83.2689 50.7695 84.8517 50.7695C86.4345 50.7695 87.8669 51.3797 89.1491 52.5999Z" fill="white"/>
<path d="M68.0715 51.0078H73.5362V51.9495H69.0265V54.9206H73.4964V55.8491H69.0265V59.5894H73.4964V60.5311H68.0715V51.0078Z" fill="white"/>
<path d="M56.694 51.9363V51.0078H61.9199V51.9363H59.7977V60.5311H58.8294V51.9363H56.694Z" fill="white"/>
<path d="M46.942 50.623L51.3854 60.531H50.3641L48.8653 57.2814H44.7535L43.268 60.531H42.2069L46.7033 50.623H46.942ZM46.8227 52.732L45.1912 56.3132H48.4408L46.8227 52.732Z" fill="white"/>
<path d="M30.2644 51.0078H32.1611C33.2222 51.0078 33.9473 51.0564 34.3363 51.1537C34.7254 51.2421 35.057 51.3925 35.3311 51.6047C35.6141 51.8169 35.8351 52.091 35.9943 52.427C36.1535 52.763 36.2331 53.1344 36.2331 53.5412C36.2331 54.3547 35.9457 54.9958 35.3709 55.4644C34.7962 55.9242 33.9827 56.1364 32.9304 56.1011L36.3657 60.5311H35.1852L31.7632 56.1011H31.2194V60.5311H30.2644V51.0078ZM31.2194 51.9363V55.1726H32.8641C33.6776 55.1814 34.2745 55.0577 34.6547 54.8012C35.0437 54.5359 35.2383 54.1204 35.2383 53.5544C35.2383 52.9885 35.0482 52.5773 34.6679 52.3209C34.2877 52.0645 33.6997 51.9363 32.9039 51.9363H31.2194Z" fill="white"/>
<path d="M18.8472 51.9363V51.0078H24.0731V51.9363H21.9509V60.5311H20.9826V51.9363H18.8472Z" fill="white"/>
<path d="M7.42664 58.7543L8.23572 58.2768C8.80164 59.3202 9.4604 59.8419 10.212 59.8419C10.6983 59.8419 11.1139 59.6871 11.4588 59.3777C11.8036 59.0682 11.9761 58.6835 11.9761 58.2237C11.9761 57.8612 11.8302 57.4942 11.5384 57.1228C11.2466 56.7514 10.7602 56.3137 10.0794 55.8097C9.40734 55.2969 8.95196 54.9166 8.71321 54.669C8.48331 54.4126 8.31088 54.1429 8.19593 53.86C8.08982 53.5682 8.03676 53.2764 8.03676 52.9846C8.03676 52.3656 8.2534 51.8439 8.68668 51.4195C9.12881 50.9862 9.68146 50.7695 10.3446 50.7695C10.8663 50.7695 11.3217 50.9022 11.7108 51.1674C12.0999 51.4239 12.4757 51.8085 12.8382 52.3214L12.0689 52.9182C11.8213 52.5822 11.5649 52.3037 11.2996 52.0826C11.0344 51.8616 10.7072 51.751 10.3181 51.751C9.93789 51.751 9.62398 51.866 9.37639 52.0959C9.13765 52.3258 9.01828 52.6176 9.01828 52.9713C9.01828 53.325 9.12438 53.6345 9.3366 53.8998C9.55766 54.1562 10.0484 54.5674 10.8089 55.1333C11.5782 55.6992 12.1352 56.2209 12.4801 56.6984C12.8338 57.1759 13.0106 57.6799 13.0106 58.2104C13.0106 58.9002 12.7409 59.5014 12.2016 60.0143C11.671 60.5183 11.052 60.7703 10.3446 60.7703C9.09786 60.7703 8.12519 60.0983 7.42664 58.7543Z" fill="white"/>
<path d="M89.7809 3.88867H91.0087L94.1295 10.8635L97.1479 3.88867H98.3928L92.9869 16.2523H91.7591L93.4985 12.2618L89.7809 3.88867Z" fill="#73768C"/>
<path d="M86.1507 11.5113C86.1507 11.8183 86.1905 12.0002 86.27 12.057C86.3496 12.1139 86.5543 12.1423 86.8839 12.1423H87.5831V13.1314C87.1056 13.211 86.7305 13.2508 86.4576 13.2508C85.946 13.2508 85.5708 13.1257 85.3321 12.8756C85.0934 12.6255 84.974 12.2332 84.974 11.6989V4.87759H83.371V3.8885H84.974V0.392578H86.1507V3.8885H87.9924V4.87759H86.1507V11.5113Z" fill="#73768C"/>
<path d="M78.968 1.36462C78.968 1.10313 79.059 0.875755 79.2409 0.682484C79.4341 0.489214 79.6615 0.392578 79.923 0.392578C80.1959 0.392578 80.4232 0.489214 80.6051 0.682484C80.7984 0.864386 80.895 1.09176 80.895 1.36462C80.895 1.6261 80.7984 1.85348 80.6051 2.04675C80.4232 2.22865 80.1959 2.3196 79.923 2.3196C79.6615 2.3196 79.4341 2.22296 79.2409 2.02969C79.059 1.83642 78.968 1.61473 78.968 1.36462ZM79.3432 3.8885H80.5199V12.9438H79.3432V3.8885Z" fill="#73768C"/>
<path d="M68.1954 3.88867H69.4403L72.4588 10.7782L75.4772 3.88867H76.7221L72.5781 13.2509H72.3735L68.1954 3.88867Z" fill="#73768C"/>
<path d="M64.0654 1.36462C64.0654 1.10313 64.1564 0.875755 64.3383 0.682484C64.5316 0.489214 64.7589 0.392578 65.0204 0.392578C65.2933 0.392578 65.5206 0.489214 65.7025 0.682484C65.8958 0.864386 65.9925 1.09176 65.9925 1.36462C65.9925 1.6261 65.8958 1.85348 65.7025 2.04675C65.5206 2.22865 65.2933 2.3196 65.0204 2.3196C64.7589 2.3196 64.5316 2.22296 64.3383 2.02969C64.1564 1.83642 64.0654 1.61473 64.0654 1.36462ZM64.4406 3.8885H65.6173V12.9438H64.4406V3.8885Z" fill="#73768C"/>
<path d="M60.0089 11.5113C60.0089 11.8183 60.0487 12.0002 60.1283 12.057C60.2079 12.1139 60.4125 12.1423 60.7422 12.1423H61.4414V13.1314C60.9639 13.211 60.5887 13.2508 60.3159 13.2508C59.8043 13.2508 59.4291 13.1257 59.1904 12.8756C58.9516 12.6255 58.8323 12.2332 58.8323 11.6989V4.87759H57.2292V3.8885H58.8323V0.392578H60.0089V3.8885H61.8507V4.87759H60.0089V11.5113Z" fill="#73768C"/>
<path d="M54.1661 3.88718V12.9425H53.0235V11.3906C51.9889 12.6298 50.8066 13.2494 49.4764 13.2494C48.1463 13.2494 47.0207 12.7776 46.0999 11.834C45.1903 10.879 44.7356 9.74783 44.7356 8.44041C44.7356 7.12162 45.196 5.99611 46.1169 5.06386C47.0378 4.12024 48.1406 3.64844 49.4252 3.64844C50.9032 3.64844 52.1026 4.27941 53.0235 5.54135V3.88718H54.1661ZM53.0917 8.45746C53.0917 7.4229 52.745 6.55318 52.0515 5.84831C51.358 5.13207 50.5053 4.77395 49.4935 4.77395C48.493 4.77395 47.646 5.14344 46.9525 5.88242C46.259 6.61002 45.9123 7.47406 45.9123 8.47452C45.9123 9.47498 46.2647 10.3447 46.9696 11.0837C47.6744 11.8113 48.5157 12.1751 49.4935 12.1751C50.4826 12.1751 51.3295 11.8226 52.0344 11.1178C52.7393 10.4129 53.0917 9.52614 53.0917 8.45746Z" fill="#73768C"/>
<path d="M40.6533 10.0093L41.6424 10.5209C40.6646 12.3399 39.2208 13.2494 37.3108 13.2494C35.9466 13.2494 34.8211 12.7833 33.9343 11.8511C33.0475 10.9075 32.6041 9.77625 32.6041 8.45746C32.6041 7.13868 33.0475 6.00747 33.9343 5.06386C34.8324 4.12024 35.9352 3.64844 37.2426 3.64844C38.5614 3.64844 39.6642 4.08614 40.551 4.96154C41.4491 5.83694 41.9152 7.03067 41.9493 8.54273H33.7979C33.832 9.63414 34.173 10.5152 34.8211 11.186C35.4804 11.8454 36.2763 12.1751 37.2085 12.1751C38.7433 12.1751 39.8916 11.4532 40.6533 10.0093ZM40.6533 7.53659C40.4941 6.67255 40.0962 5.99611 39.4595 5.50725C38.8229 5.01838 38.0896 4.77395 37.2597 4.77395C35.5543 4.77395 34.4402 5.69483 33.9172 7.53659H40.6533Z" fill="#73768C"/>
<path d="M26.4341 3.88718H27.6278V5.20029C27.9461 4.66595 28.2531 4.27372 28.5487 4.02361C28.8556 3.7735 29.191 3.64844 29.5548 3.64844C29.93 3.64844 30.3052 3.75076 30.6803 3.9554L30.0664 4.94449C29.8959 4.84217 29.7197 4.79101 29.5378 4.79101C29.1853 4.79101 28.85 4.97291 28.5316 5.33671C28.2247 5.70052 27.9973 6.17232 27.8495 6.75213C27.7017 7.32058 27.6278 8.36083 27.6278 9.87289V12.9425H26.4341V3.88718Z" fill="#73768C"/>
<path d="M23.5785 2.96762L22.6235 3.70092C21.4866 2.29118 20.0257 1.58631 18.2408 1.58631C16.7856 1.58631 15.5293 2.09791 14.472 3.1211C13.4261 4.1443 12.9031 5.40056 12.9031 6.88988C12.9031 8.36783 13.4147 9.60704 14.4379 10.6075C15.4725 11.5966 16.7628 12.0911 18.309 12.0911C20.0371 12.0911 21.4752 11.4204 22.6235 10.0788L23.5785 10.8121C22.9759 11.608 22.2142 12.2162 21.2933 12.6368C20.3724 13.0461 19.3549 13.2508 18.2408 13.2508C16.2967 13.2508 14.7051 12.6368 13.4659 11.409C12.2267 10.1812 11.6071 8.62931 11.6071 6.75345C11.6071 5.59383 11.8913 4.52516 12.4597 3.54744C13.0395 2.55835 13.8354 1.78526 14.8472 1.22819C15.8704 0.671115 16.9675 0.392578 18.1385 0.392578C19.3095 0.392578 20.3611 0.614271 21.2933 1.05766C22.2256 1.50104 22.9873 2.1377 23.5785 2.96762Z" fill="#73768C"/>
</svg>
