<svg width="264" height="80" viewBox="0 0 264 80" fill="none" xmlns="http://www.w3.org/2000/svg">
<path d="M215.048 74.8128L216.484 73.9651C217.489 75.8175 218.659 76.7438 219.993 76.7438C220.856 76.7438 221.594 76.4691 222.207 75.9196C222.819 75.3701 223.125 74.6872 223.125 73.8709C223.125 73.2272 222.866 72.5757 222.348 71.9164C221.83 71.257 220.966 70.4799 219.758 69.5851C218.564 68.6746 217.756 67.9995 217.332 67.5599C216.924 67.1047 216.618 66.6258 216.414 66.1235C216.225 65.6054 216.131 65.0874 216.131 64.5693C216.131 63.4704 216.516 62.5441 217.285 61.7906C218.07 61.0213 219.051 60.6367 220.228 60.6367C221.155 60.6367 221.963 60.8722 222.654 61.3432C223.345 61.7984 224.012 62.4813 224.656 63.3919L223.29 64.4516C222.85 63.855 222.395 63.3605 221.924 62.968C221.453 62.5755 220.872 62.3793 220.181 62.3793C219.506 62.3793 218.949 62.5834 218.509 62.9916C218.086 63.3997 217.874 63.9178 217.874 64.5457C217.874 65.1737 218.062 65.7232 218.439 66.1941C218.831 66.6494 219.703 67.3794 221.053 68.3841C222.418 69.3889 223.408 70.3151 224.02 71.1628C224.648 72.0106 224.962 72.9054 224.962 73.8473C224.962 75.0718 224.483 76.1394 223.525 77.0499C222.583 77.9447 221.484 78.3922 220.228 78.3922C218.015 78.3922 216.288 77.199 215.048 74.8128Z" fill="white"/>
<path d="M202.775 61.0605H212.477V62.7325H204.471V68.0073H212.407V69.6557H204.471V76.2963H212.407V77.9683H202.775V61.0605Z" fill="white"/>
<path d="M197.936 64.1925L196.617 65.2051C195.048 63.2584 193.03 62.2851 190.566 62.2851C188.556 62.2851 186.821 62.9916 185.361 64.4045C183.917 65.8174 183.195 67.5521 183.195 69.6086C183.195 71.6495 183.901 73.3607 185.314 74.7422C186.743 76.108 188.525 76.7909 190.66 76.7909C193.046 76.7909 195.032 75.8646 196.617 74.0122L197.936 75.0248C197.104 76.1237 196.052 76.9636 194.781 77.5444C193.509 78.1096 192.104 78.3922 190.566 78.3922C187.881 78.3922 185.683 77.5444 183.972 75.8489C182.261 74.1535 181.405 72.0106 181.405 69.4202C181.405 67.819 181.798 66.3433 182.583 64.9932C183.383 63.6274 184.482 62.5598 185.879 61.7906C187.292 61.0213 188.807 60.6367 190.424 60.6367C192.041 60.6367 193.493 60.9428 194.781 61.5551C196.068 62.1674 197.12 63.0465 197.936 64.1925Z" fill="white"/>
<path d="M163.362 77.9683V61.0605H163.739L174.972 74.0121V61.0605H176.644V77.9683H176.267L165.105 65.1815V77.9683H163.362Z" fill="white"/>
<path d="M149.324 61.0605H159.026V62.7325H151.02V68.0073H158.955V69.6557H151.02V76.2963H158.955V77.9683H149.324V61.0605Z" fill="white"/>
<path d="M142.34 61.0605H144.035V77.9683H142.34V61.0605Z" fill="white"/>
<path d="M126.953 61.0605H130.321C132.204 61.0605 133.492 61.1469 134.182 61.3196C134.873 61.4766 135.462 61.7434 135.949 62.1202C136.451 62.497 136.843 62.9837 137.126 63.5802C137.409 64.1768 137.55 64.8361 137.55 65.5583C137.55 67.0026 137.04 68.1407 136.019 68.9728C134.999 69.7891 133.555 70.1659 131.686 70.1031L137.785 77.9683H135.69L129.614 70.1031H128.649V77.9683H126.953V61.0605ZM128.649 62.7089V68.4547H131.569C133.013 68.4704 134.073 68.2506 134.748 67.7954C135.438 67.3244 135.784 66.5866 135.784 65.5818C135.784 64.5771 135.446 63.8471 134.771 63.3918C134.096 62.9366 133.052 62.7089 131.639 62.7089H128.649Z" fill="white"/>
<path d="M112.845 61.0605H122.547V62.7325H114.54V68.0073H122.476V69.6557H114.54V76.2963H122.476V77.9683H112.845V61.0605Z" fill="white"/>
<path d="M97.4727 61.0605H100.84C102.834 61.0605 104.137 61.139 104.749 61.296C105.361 61.453 105.919 61.7278 106.421 62.1202C106.939 62.5127 107.339 63.0072 107.622 63.6038C107.905 64.1846 108.046 64.8361 108.046 65.5583C108.046 66.72 107.732 67.6698 107.104 68.4076C106.476 69.1455 105.683 69.6164 104.726 69.8205C103.784 70.0089 102.331 70.1031 100.369 70.1031H99.1681V77.9683H97.4727V61.0605ZM99.1681 62.7089V68.4783H102.017C103.729 68.5097 104.867 68.2349 105.432 67.6541C105.997 67.0575 106.28 66.3589 106.28 65.5583C106.28 63.6587 104.906 62.7089 102.159 62.7089H99.1681Z" fill="white"/>
<path d="M80.8142 61.0605H82.7922L86.8425 67.6541L90.9399 61.0605H92.8945L87.8551 69.2554L93.2241 77.9683H91.2461L86.8425 70.8802L82.439 77.9683H80.4609L85.8535 69.2554L80.8142 61.0605Z" fill="white"/>
<path d="M67.6953 61.0605H77.3972V62.7325H69.3908V68.0073H77.3266V69.6557H69.3908V76.2963H77.3266V77.9683H67.6953V61.0605Z" fill="white"/>
<path d="M262.125 45.2796L263.49 45.9861C262.14 48.4979 260.147 49.7538 257.509 49.7538C255.625 49.7538 254.071 49.1102 252.847 47.8228C251.622 46.5198 251.01 44.9578 251.01 43.1367C251.01 41.3157 251.622 39.7536 252.847 38.4506C254.087 37.1476 255.61 36.4961 257.415 36.4961C259.236 36.4961 260.759 37.1005 261.983 38.3093C263.224 39.5181 263.867 41.1665 263.914 43.2545H252.658C252.705 44.7616 253.176 45.9782 254.071 46.9045C254.982 47.815 256.081 48.2703 257.368 48.2703C259.487 48.2703 261.073 47.2734 262.125 45.2796ZM262.125 41.8651C261.905 40.672 261.355 39.7379 260.476 39.0629C259.597 38.3878 258.584 38.0503 257.438 38.0503C255.084 38.0503 253.545 39.3219 252.823 41.8651H262.125Z" fill="#73768C"/>
<path d="M234.792 36.8262H236.511L240.679 46.3397L244.847 36.8262H246.566L240.844 49.7542H240.561L234.792 36.8262Z" fill="#73768C"/>
<path d="M227.911 33.3423C227.911 32.9812 228.037 32.6672 228.288 32.4003C228.555 32.1334 228.869 32 229.23 32C229.607 32 229.921 32.1334 230.172 32.4003C230.439 32.6515 230.572 32.9655 230.572 33.3423C230.572 33.7033 230.439 34.0173 230.172 34.2842C229.921 34.5354 229.607 34.661 229.23 34.661C228.869 34.661 228.555 34.5275 228.288 34.2606C228.037 33.9938 227.911 33.6876 227.911 33.3423ZM228.429 36.8274H230.054V49.3316H228.429V36.8274Z" fill="#73768C"/>
<path d="M221.132 47.3535C221.132 47.7774 221.187 48.0286 221.297 48.1071C221.407 48.1856 221.69 48.2248 222.145 48.2248H223.11V49.5906C222.451 49.7005 221.933 49.7554 221.556 49.7554C220.85 49.7554 220.332 49.5828 220.002 49.2374C219.672 48.892 219.507 48.3504 219.507 47.6125V38.1932H217.294V36.8274H219.507V32H221.132V36.8274H223.676V38.1932H221.132V47.3535Z" fill="#73768C"/>
<path d="M211.886 36.8258V49.3299H210.309V47.187C208.88 48.8982 207.247 49.7538 205.411 49.7538C203.574 49.7538 202.02 49.1023 200.748 47.7993C199.492 46.4806 198.864 44.9185 198.864 43.1132C198.864 41.2921 199.5 39.7379 200.772 38.4506C202.043 37.1476 203.566 36.4961 205.34 36.4961C207.381 36.4961 209.037 37.3674 210.309 39.11V36.8258H211.886ZM210.403 43.1367C210.403 41.7081 209.924 40.5072 208.966 39.5338C208.009 38.5448 206.831 38.0503 205.434 38.0503C204.053 38.0503 202.883 38.5605 201.926 39.5809C200.968 40.5857 200.489 41.7788 200.489 43.1603C200.489 44.5418 200.976 45.7427 201.949 46.7632C202.922 47.7679 204.084 48.2703 205.434 48.2703C206.8 48.2703 207.97 47.7836 208.943 46.8103C209.916 45.8369 210.403 44.6124 210.403 43.1367Z" fill="#73768C"/>
<path d="M174.74 36.8258H176.342V38.9922C177.456 37.3281 178.885 36.4961 180.627 36.4961C181.554 36.4961 182.378 36.763 183.1 37.2967C183.838 37.8148 184.332 38.5526 184.583 39.5103C185.101 38.5369 185.761 37.7913 186.561 37.2732C187.362 36.7551 188.281 36.4961 189.317 36.4961C190.368 36.4961 191.318 36.9043 192.166 37.7206C193.014 38.5213 193.438 40.1147 193.438 42.5009V49.3299H191.789V42.5009C191.789 41.3549 191.719 40.515 191.577 39.9812C191.436 39.4318 191.13 38.9765 190.659 38.6154C190.188 38.2387 189.56 38.0503 188.775 38.0503C188.006 38.0503 187.284 38.3093 186.609 38.8274C185.934 39.3454 185.47 40.0048 185.219 40.8054C184.968 41.6061 184.842 42.8149 184.842 44.4319V49.3299H183.265V42.9248C183.265 41.5904 183.194 40.6406 183.053 40.0754C182.912 39.4946 182.598 39.0158 182.111 38.639C181.624 38.2465 181.028 38.0503 180.321 38.0503C179.615 38.0503 178.948 38.2622 178.32 38.6861C177.707 39.0943 177.221 39.6594 176.86 40.3816C176.514 41.1037 176.342 42.3204 176.342 44.0316V49.3299H174.74V36.8258Z" fill="#73768C"/>
<path d="M164.455 36.8258H166.103V38.639C166.543 37.9011 166.967 37.3595 167.375 37.0142C167.799 36.6688 168.262 36.4961 168.764 36.4961C169.282 36.4961 169.801 36.6374 170.319 36.92L169.471 38.2858C169.235 38.1445 168.992 38.0738 168.741 38.0738C168.254 38.0738 167.791 38.325 167.352 38.8274C166.928 39.3297 166.614 39.9812 166.41 40.7819C166.205 41.5668 166.103 43.0033 166.103 45.0912V49.3299H164.455V36.8258Z" fill="#73768C"/>
<path d="M146.457 43.1603C146.457 41.3235 147.085 39.7536 148.341 38.4506C149.613 37.1476 151.151 36.4961 152.956 36.4961C154.777 36.4961 156.316 37.1476 157.572 38.4506C158.843 39.7536 159.479 41.3157 159.479 43.1367C159.479 44.9578 158.851 46.5198 157.595 47.8228C156.355 49.1102 154.817 49.7538 152.98 49.7538C151.143 49.7538 149.597 49.1102 148.341 47.8228C147.085 46.5198 146.457 44.9656 146.457 43.1603ZM157.854 43.1838C157.854 41.8023 157.368 40.6092 156.394 39.6045C155.437 38.584 154.291 38.0738 152.956 38.0738C151.638 38.0738 150.499 38.584 149.542 39.6045C148.584 40.6092 148.105 41.8102 148.105 43.2074C148.105 44.6046 148.569 45.7898 149.495 46.7632C150.421 47.7365 151.567 48.2232 152.933 48.2232C154.314 48.2232 155.476 47.7365 156.418 46.7632C157.376 45.7741 157.854 44.581 157.854 43.1838Z" fill="#73768C"/>
<path d="M142.208 32.3297V33.9074C141.596 33.6405 141.046 33.5071 140.56 33.5071C140.089 33.5071 139.783 33.6641 139.641 33.9781C139.5 34.2763 139.429 34.7709 139.429 35.4616V36.8274H142.043V38.1932H139.429V49.3316H137.805V38.1932H136.18V36.8274H137.805V35.2026C137.805 34.1037 138.009 33.2952 138.417 32.7771C138.825 32.259 139.461 32 140.324 32C140.827 32 141.455 32.1099 142.208 32.3297Z" fill="#73768C"/>
<path d="M131.618 38.1916L130.582 39.2512C129.719 38.4192 128.879 38.0032 128.062 38.0032C127.529 38.0032 127.081 38.1759 126.72 38.5212C126.359 38.8509 126.178 39.2669 126.178 39.7693C126.178 40.256 126.367 40.6798 126.744 41.0409C127.136 41.3863 127.803 41.8102 128.745 42.3125C129.687 42.7992 130.401 43.333 130.888 43.9138C131.391 44.479 131.642 45.1776 131.642 46.0096C131.642 47.0614 131.273 47.9484 130.535 48.6706C129.813 49.3927 128.918 49.7538 127.85 49.7538C127.144 49.7538 126.461 49.5968 125.802 49.2828C125.158 48.9689 124.609 48.5293 124.153 47.9641L125.166 46.8338C125.998 47.76 126.869 48.2232 127.78 48.2232C128.423 48.2232 128.973 48.0112 129.428 47.5874C129.883 47.1635 130.111 46.669 130.111 46.1038C130.111 45.523 129.907 45.052 129.499 44.6909C129.106 44.3141 128.439 43.8903 127.497 43.4193C126.571 42.9483 125.872 42.4381 125.401 41.8887C124.946 41.3235 124.718 40.6014 124.718 39.7222C124.718 38.8274 125.04 38.066 125.684 37.438C126.343 36.8101 127.207 36.4961 128.274 36.4961C129.358 36.4961 130.472 37.0613 131.618 38.1916Z" fill="#73768C"/>
<path d="M108.367 36.8258H109.992V39.0629C111.279 37.3517 112.841 36.4961 114.678 36.4961C115.62 36.4961 116.468 36.7551 117.221 37.2732C117.975 37.7756 118.509 38.4428 118.823 39.2748C119.137 40.0911 119.294 41.3 119.294 42.9012V49.3299H117.692V43.3722C117.692 41.9122 117.622 40.9232 117.48 40.4051C117.355 39.8871 117.151 39.4475 116.868 39.0864C116.601 38.7253 116.256 38.4506 115.832 38.2622C115.408 38.0738 114.89 37.9796 114.278 37.9796C113.681 37.9796 113.093 38.1288 112.512 38.4271C111.931 38.7253 111.436 39.1414 111.028 39.6751C110.62 40.2089 110.345 40.7583 110.204 41.3235C110.063 41.8887 109.992 43.0268 109.992 44.738V49.3299H108.367V36.8258Z" fill="#73768C"/>
<path d="M102.16 36.8258V49.3299H100.582V47.187C99.1536 48.8982 97.5209 49.7538 95.6841 49.7538C93.8474 49.7538 92.2932 49.1023 91.0216 47.7993C89.7656 46.4806 89.1377 44.9185 89.1377 43.1132C89.1377 41.2921 89.7735 39.7379 91.0451 38.4506C92.3167 37.1476 93.8395 36.4961 95.6135 36.4961C97.6543 36.4961 99.3106 37.3674 100.582 39.11V36.8258H102.16ZM100.676 43.1367C100.676 41.7081 100.198 40.5072 99.2399 39.5338C98.2823 38.5448 97.1049 38.0503 95.7077 38.0503C94.3262 38.0503 93.1566 38.5605 92.199 39.5809C91.2413 40.5857 90.7625 41.7788 90.7625 43.1603C90.7625 44.5418 91.2492 45.7427 92.2225 46.7632C93.1959 47.7679 94.3576 48.2703 95.7077 48.2703C97.0735 48.2703 98.243 47.7836 99.2164 46.8103C100.19 45.8369 100.676 44.6124 100.676 43.1367Z" fill="#73768C"/>
<path d="M79.417 36.8258H81.0654V38.639C81.5049 37.9011 81.9288 37.3595 82.337 37.0142C82.7609 36.6688 83.224 36.4961 83.7263 36.4961C84.2444 36.4961 84.7625 36.6374 85.2805 36.92L84.4328 38.2858C84.1973 38.1445 83.954 38.0738 83.7028 38.0738C83.2161 38.0738 82.753 38.325 82.3134 38.8274C81.8896 39.3297 81.5756 39.9812 81.3715 40.7819C81.1674 41.5668 81.0654 43.0033 81.0654 45.0912V49.3299H79.417V36.8258Z" fill="#73768C"/>
<path d="M66 34.0722V32.4238H75.278V34.0722H71.5103V49.3315H69.7913V34.0722H66Z" fill="#73768C"/>
</svg>
