<svg width="264" height="80" viewBox="0 0 264 80" fill="none" xmlns="http://www.w3.org/2000/svg">
<path d="M245.174 61.0566H248.541C250.425 61.0566 251.712 61.143 252.403 61.3157C253.094 61.4727 253.683 61.7395 254.169 62.1163C254.672 62.4931 255.064 62.9798 255.347 63.5763C255.629 64.1729 255.771 64.8322 255.771 65.5544C255.771 66.9987 255.26 68.1368 254.24 68.9689C253.219 69.7852 251.775 70.162 249.907 70.0992L256.006 77.9643H253.91L247.835 70.0992H246.869V77.9643H245.174V61.0566ZM246.869 62.705V68.4508H249.789C251.234 68.4665 252.293 68.2467 252.968 67.7915C253.659 67.3205 254.004 66.5827 254.004 65.5779C254.004 64.5732 253.667 63.8432 252.992 63.3879C252.317 62.9327 251.273 62.705 249.86 62.705H246.869Z" fill="white"/>
<path d="M231.065 61.0566H240.767V62.7286H232.761V68.0034H240.697V69.6518H232.761V76.2924H240.697V77.9643H231.065V61.0566Z" fill="white"/>
<path d="M212.105 77.9643V61.0566H215.614C218.016 61.0566 219.774 61.2372 220.889 61.5983C222.019 61.9436 222.993 62.5009 223.809 63.2702C224.625 64.0237 225.253 64.95 225.693 66.0489C226.132 67.1478 226.352 68.4351 226.352 69.9108C226.352 71.3708 226.007 72.7523 225.316 74.0553C224.641 75.3426 223.715 76.316 222.537 76.9753C221.376 77.6347 219.696 77.9643 217.498 77.9643H212.105ZM213.73 76.3631H215.685C217.726 76.3631 219.201 76.261 220.112 76.0569C221.038 75.8528 221.847 75.4525 222.537 74.856C223.228 74.2437 223.754 73.5059 224.115 72.6424C224.476 71.779 224.657 70.79 224.657 69.6753C224.657 68.5607 224.445 67.5324 224.021 66.5905C223.613 65.6486 223.024 64.8715 222.255 64.2592C221.486 63.647 220.575 63.2388 219.523 63.0347C218.487 62.8149 216.956 62.705 214.931 62.705H213.73V76.3631Z" fill="white"/>
<path d="M200.184 60.375L208.073 77.9656H206.26L203.599 72.1963H196.299L193.661 77.9656H191.777L199.76 60.375H200.184ZM199.972 64.1192L197.076 70.4772H202.845L199.972 64.1192Z" fill="white"/>
<path d="M179.246 61.0566H188.948V62.7286H180.942V68.0034H188.877V69.6518H180.942V76.2924H188.877V77.9643H179.246V61.0566Z" fill="white"/>
<path d="M166.934 61.0566H168.653V76.3395H175.152V77.9643H166.934V61.0566Z" fill="white"/>
<path d="M140.812 77.9643V61.0566H141.189L152.422 74.0082V61.0566H154.094V77.9643H153.717L142.555 65.1776V77.9643H140.812Z" fill="white"/>
<path d="M135.183 63.8825L133.888 65.1305C132.946 64.22 131.909 63.5214 130.779 63.0347C129.665 62.5481 128.511 62.3047 127.318 62.3047C126.124 62.3047 124.931 62.6266 123.738 63.2702C122.545 63.9139 121.611 64.7852 120.936 65.8841C120.277 66.9673 119.947 68.1447 119.947 69.4163C119.947 71.3944 120.685 73.1213 122.16 74.597C123.652 76.057 125.512 76.787 127.741 76.787C129.437 76.787 130.889 76.316 132.098 75.3741C133.322 74.4164 134.052 73.1213 134.288 71.4886H128.895V69.8638H136.195C136.148 72.5483 135.348 74.6441 133.793 76.1512C132.239 77.6426 130.206 78.3883 127.694 78.3883C124.806 78.3883 122.49 77.5013 120.748 75.7273C119.021 73.9533 118.157 71.8732 118.157 69.487C118.157 67.0851 119.021 65.0128 120.748 63.2702C122.474 61.512 124.743 60.6328 127.553 60.6328C130.363 60.6328 132.906 61.716 135.183 63.8825Z" fill="white"/>
<path d="M111.88 61.0566H113.575V77.9643H111.88V61.0566Z" fill="white"/>
<path d="M97.2314 74.8089L98.6679 73.9612C99.6726 75.8136 100.842 76.7399 102.177 76.7399C103.04 76.7399 103.778 76.4651 104.39 75.9157C105.002 75.3662 105.309 74.6833 105.309 73.867C105.309 73.2233 105.049 72.5718 104.531 71.9125C104.013 71.2531 103.15 70.476 101.941 69.5812C100.748 68.6706 99.9395 67.9956 99.5156 67.556C99.1075 67.1008 98.8013 66.6219 98.5972 66.1196C98.4089 65.6015 98.3147 65.0834 98.3147 64.5654C98.3147 63.4665 98.6993 62.5402 99.4685 61.7867C100.253 61.0174 101.235 60.6328 102.412 60.6328C103.338 60.6328 104.147 60.8683 104.838 61.3393C105.528 61.7945 106.196 62.4774 106.839 63.388L105.473 64.4476C105.034 63.8511 104.579 63.3566 104.108 62.9641C103.637 62.5716 103.056 62.3754 102.365 62.3754C101.69 62.3754 101.133 62.5795 100.693 62.9876C100.269 63.3958 100.057 63.9139 100.057 64.5418C100.057 65.1698 100.246 65.7193 100.622 66.1902C101.015 66.6455 101.886 67.3755 103.236 68.3802C104.602 69.3849 105.591 70.3112 106.203 71.1589C106.831 72.0067 107.145 72.9015 107.145 73.8434C107.145 75.0679 106.666 76.1355 105.709 77.046C104.767 77.9408 103.668 78.3883 102.412 78.3883C100.199 78.3883 98.4717 77.1951 97.2314 74.8089Z" fill="white"/>
<path d="M84.96 61.0566H94.6619V62.7286H86.6554V68.0034H94.5912V69.6518H86.6554V76.2924H94.5912V77.9643H84.96V61.0566Z" fill="white"/>
<path d="M66 77.9643V61.0566H69.5087C71.9106 61.0566 73.6689 61.2372 74.7835 61.5983C75.9138 61.9436 76.8872 62.5009 77.7035 63.2702C78.5199 64.0237 79.1478 64.95 79.5874 66.0489C80.027 67.1478 80.2467 68.4351 80.2467 69.9108C80.2467 71.3708 79.9014 72.7523 79.2106 74.0553C78.5356 75.3426 77.6093 76.316 76.4319 76.9753C75.2702 77.6347 73.5904 77.9643 71.3926 77.9643H66ZM67.6248 76.3631H69.5793C71.6202 76.3631 73.0959 76.261 74.0064 76.0569C74.9327 75.8528 75.7412 75.4525 76.4319 74.856C77.1227 74.2437 77.6486 73.5059 78.0097 72.6424C78.3707 71.779 78.5513 70.79 78.5513 69.6753C78.5513 68.5607 78.3393 67.5324 77.9155 66.5905C77.5073 65.6486 76.9186 64.8715 76.1493 64.2592C75.3801 63.647 74.4696 63.2388 73.4177 63.0347C72.3816 62.8149 70.851 62.705 68.8258 62.705H67.6248V76.3631Z" fill="white"/>
<path d="M206.421 45.2796L207.787 45.9861C206.437 48.4979 204.443 49.7538 201.806 49.7538C199.922 49.7538 198.368 49.1102 197.143 47.8228C195.919 46.5198 195.307 44.9578 195.307 43.1367C195.307 41.3157 195.919 39.7536 197.143 38.4506C198.384 37.1476 199.906 36.4961 201.712 36.4961C203.533 36.4961 205.056 37.1005 206.28 38.3093C207.52 39.5181 208.164 41.1665 208.211 43.2545H196.955C197.002 44.7616 197.473 45.9782 198.368 46.9045C199.278 47.815 200.377 48.2703 201.665 48.2703C203.784 48.2703 205.37 47.2734 206.421 45.2796ZM206.421 41.8651C206.202 40.672 205.652 39.7379 204.773 39.0629C203.894 38.3878 202.881 38.0503 201.735 38.0503C199.381 38.0503 197.842 39.3219 197.12 41.8651H206.421Z" fill="#73768C"/>
<path d="M188.363 47.3535C188.363 47.7774 188.418 48.0286 188.528 48.1071C188.638 48.1856 188.92 48.2248 189.375 48.2248H190.341V49.5906C189.682 49.7005 189.163 49.7554 188.787 49.7554C188.08 49.7554 187.562 49.5828 187.232 49.2374C186.903 48.892 186.738 48.3504 186.738 47.6125V38.1932H184.524V36.8274H186.738V32H188.363V36.8274H190.906V38.1932H188.363V47.3535Z" fill="#73768C"/>
<path d="M179.117 36.8258V49.3299H177.539V47.187C176.111 48.8982 174.478 49.7538 172.641 49.7538C170.804 49.7538 169.25 49.1023 167.979 47.7993C166.723 46.4806 166.095 44.9185 166.095 43.1132C166.095 41.2921 166.731 39.7379 168.002 38.4506C169.274 37.1476 170.797 36.4961 172.571 36.4961C174.611 36.4961 176.268 37.3674 177.539 39.11V36.8258H179.117ZM177.633 43.1367C177.633 41.7081 177.155 40.5072 176.197 39.5338C175.239 38.5448 174.062 38.0503 172.665 38.0503C171.283 38.0503 170.114 38.5605 169.156 39.5809C168.198 40.5857 167.72 41.7788 167.72 43.1603C167.72 44.5418 168.206 45.7427 169.18 46.7632C170.153 47.7679 171.315 48.2703 172.665 48.2703C174.031 48.2703 175.2 47.7836 176.173 46.8103C177.147 45.8369 177.633 44.6124 177.633 43.1367Z" fill="#73768C"/>
<path d="M149.697 36.8258H151.322V39.0629C152.609 37.3517 154.171 36.4961 156.008 36.4961C156.95 36.4961 157.798 36.7551 158.551 37.2732C159.305 37.7756 159.839 38.4428 160.153 39.2748C160.467 40.0911 160.624 41.3 160.624 42.9012V49.3299H159.022V43.3722C159.022 41.9122 158.952 40.9232 158.81 40.4051C158.685 39.8871 158.481 39.4475 158.198 39.0864C157.931 38.7253 157.586 38.4506 157.162 38.2622C156.738 38.0738 156.22 37.9796 155.608 37.9796C155.011 37.9796 154.423 38.1288 153.842 38.4271C153.261 38.7253 152.766 39.1414 152.358 39.6751C151.95 40.2089 151.675 40.7583 151.534 41.3235C151.393 41.8887 151.322 43.0268 151.322 44.738V49.3299H149.697V36.8258Z" fill="#73768C"/>
<path d="M131.088 43.1603C131.088 41.3235 131.716 39.7536 132.972 38.4506C134.243 37.1476 135.782 36.4961 137.587 36.4961C139.408 36.4961 140.947 37.1476 142.203 38.4506C143.474 39.7536 144.11 41.3157 144.11 43.1367C144.11 44.9578 143.482 46.5198 142.226 47.8228C140.986 49.1102 139.448 49.7538 137.611 49.7538C135.774 49.7538 134.228 49.1102 132.972 47.8228C131.716 46.5198 131.088 44.9656 131.088 43.1603ZM142.485 43.1838C142.485 41.8023 141.999 40.6092 141.025 39.6045C140.068 38.584 138.922 38.0738 137.587 38.0738C136.269 38.0738 135.13 38.584 134.173 39.6045C133.215 40.6092 132.736 41.8102 132.736 43.2074C132.736 44.6046 133.199 45.7898 134.126 46.7632C135.052 47.7365 136.198 48.2232 137.564 48.2232C138.945 48.2232 140.107 47.7365 141.049 46.7632C142.006 45.7741 142.485 44.581 142.485 43.1838Z" fill="#73768C"/>
<path d="M123.618 33.3423C123.618 32.9812 123.744 32.6672 123.995 32.4003C124.262 32.1334 124.576 32 124.937 32C125.314 32 125.628 32.1334 125.879 32.4003C126.146 32.6515 126.279 32.9655 126.279 33.3423C126.279 33.7033 126.146 34.0173 125.879 34.2842C125.628 34.5354 125.314 34.661 124.937 34.661C124.576 34.661 124.262 34.5275 123.995 34.2606C123.744 33.9938 123.618 33.6876 123.618 33.3423ZM124.136 36.8274H125.761V49.3316H124.136V36.8274Z" fill="#73768C"/>
<path d="M118.939 38.1916L117.903 39.2512C117.04 38.4192 116.2 38.0032 115.384 38.0032C114.85 38.0032 114.402 38.1759 114.041 38.5212C113.68 38.8509 113.5 39.2669 113.5 39.7693C113.5 40.256 113.688 40.6798 114.065 41.0409C114.457 41.3863 115.125 41.8102 116.067 42.3125C117.008 42.7992 117.723 43.333 118.209 43.9138C118.712 44.479 118.963 45.1776 118.963 46.0096C118.963 47.0614 118.594 47.9484 117.856 48.6706C117.134 49.3927 116.239 49.7538 115.172 49.7538C114.465 49.7538 113.782 49.5968 113.123 49.2828C112.479 48.9689 111.93 48.5293 111.475 47.9641L112.487 46.8338C113.319 47.76 114.191 48.2232 115.101 48.2232C115.745 48.2232 116.294 48.0112 116.749 47.5874C117.205 47.1635 117.432 46.669 117.432 46.1038C117.432 45.523 117.228 45.052 116.82 44.6909C116.428 44.3141 115.76 43.8903 114.818 43.4193C113.892 42.9483 113.194 42.4381 112.723 41.8887C112.267 41.3235 112.04 40.6014 112.04 39.7222C112.04 38.8274 112.362 38.066 113.005 37.438C113.665 36.8101 114.528 36.4961 115.596 36.4961C116.679 36.4961 117.793 37.0613 118.939 38.1916Z" fill="#73768C"/>
<path d="M107.22 38.1916L106.184 39.2512C105.32 38.4192 104.48 38.0032 103.664 38.0032C103.13 38.0032 102.683 38.1759 102.322 38.5212C101.961 38.8509 101.78 39.2669 101.78 39.7693C101.78 40.256 101.968 40.6798 102.345 41.0409C102.738 41.3863 103.405 41.8102 104.347 42.3125C105.289 42.7992 106.003 43.333 106.49 43.9138C106.992 44.479 107.243 45.1776 107.243 46.0096C107.243 47.0614 106.874 47.9484 106.136 48.6706C105.414 49.3927 104.519 49.7538 103.452 49.7538C102.746 49.7538 102.063 49.5968 101.403 49.2828C100.76 48.9689 100.21 48.5293 99.7549 47.9641L100.767 46.8338C101.6 47.76 102.471 48.2232 103.381 48.2232C104.025 48.2232 104.574 48.0112 105.03 47.5874C105.485 47.1635 105.713 46.669 105.713 46.1038C105.713 45.523 105.509 45.052 105.1 44.6909C104.708 44.3141 104.041 43.8903 103.099 43.4193C102.173 42.9483 101.474 42.4381 101.003 41.8887C100.548 41.3235 100.32 40.6014 100.32 39.7222C100.32 38.8274 100.642 38.066 101.286 37.438C101.945 36.8101 102.808 36.4961 103.876 36.4961C104.959 36.4961 106.074 37.0613 107.22 38.1916Z" fill="#73768C"/>
<path d="M94.7244 36.8258V49.3299H93.1466V47.187C91.718 48.8982 90.0854 49.7538 88.2486 49.7538C86.4118 49.7538 84.8576 49.1023 83.586 47.7993C82.3301 46.4806 81.7021 44.9185 81.7021 43.1132C81.7021 41.2921 82.338 39.7379 83.6096 38.4506C84.8812 37.1476 86.404 36.4961 88.1779 36.4961C90.2188 36.4961 91.875 37.3674 93.1466 39.11V36.8258H94.7244ZM93.2408 43.1367C93.2408 41.7081 92.762 40.5072 91.8044 39.5338C90.8468 38.5448 89.6693 38.0503 88.2721 38.0503C86.8906 38.0503 85.7211 38.5605 84.7634 39.5809C83.8058 40.5857 83.327 41.7788 83.327 43.1603C83.327 44.5418 83.8136 45.7427 84.787 46.7632C85.7603 47.7679 86.922 48.2703 88.2721 48.2703C89.6379 48.2703 90.8075 47.7836 91.7808 46.8103C92.7542 45.8369 93.2408 44.6124 93.2408 43.1367Z" fill="#73768C"/>
<path d="M66 32.4238H69.3674C71.3612 32.4238 72.6642 32.5023 73.2764 32.6593C73.8887 32.8163 74.446 33.091 74.9484 33.4835C75.4664 33.876 75.8668 34.3705 76.1493 34.967C76.4319 35.5479 76.5732 36.1994 76.5732 36.9216C76.5732 38.0833 76.2592 39.0331 75.6313 39.7709C75.0033 40.5088 74.2105 40.9797 73.2529 41.1838C72.311 41.3722 70.8588 41.4664 68.8964 41.4664H67.6955V49.3315H66V32.4238ZM67.6955 34.0722V39.8416H70.5448C72.256 39.873 73.3942 39.5982 73.9593 39.0174C74.5245 38.4208 74.8071 37.7222 74.8071 36.9216C74.8071 35.022 73.4334 34.0722 70.6861 34.0722H67.6955Z" fill="#73768C"/>
</svg>
