<svg width="151" height="84" viewBox="0 0 151 84" fill="none" xmlns="http://www.w3.org/2000/svg">
<path d="M138.8 58.072C136.633 58.072 134.545 57.8208 132.536 57.3185C130.558 56.7847 128.988 56.1254 127.826 55.3404L130.275 50.0656C131.437 50.7877 132.803 51.3843 134.373 51.8553C135.974 52.2948 137.544 52.5146 139.082 52.5146C140.778 52.5146 141.971 52.3105 142.662 51.9024C143.384 51.4942 143.745 50.929 143.745 50.2069C143.745 49.6103 143.462 49.1708 142.897 48.8882C142.363 48.5742 141.641 48.3387 140.731 48.1817C139.82 48.0247 138.815 47.8677 137.716 47.7108C136.649 47.5538 135.566 47.3497 134.467 47.0985C133.368 46.8159 132.363 46.4077 131.453 45.874C130.542 45.3402 129.804 44.6181 129.239 43.7075C128.705 42.797 128.438 41.6196 128.438 40.1753C128.438 38.574 128.894 37.1611 129.804 35.9366C130.746 34.7121 132.096 33.7544 133.855 33.0637C135.613 32.3415 137.716 31.9805 140.165 31.9805C141.892 31.9805 143.651 32.1689 145.44 32.5456C147.23 32.9224 148.721 33.4719 149.915 34.194L147.465 39.4217C146.241 38.6996 145.001 38.2129 143.745 37.9617C142.52 37.6792 141.327 37.5379 140.165 37.5379C138.533 37.5379 137.34 37.7577 136.586 38.1972C135.833 38.6368 135.456 39.202 135.456 39.8927C135.456 40.5207 135.723 40.9916 136.256 41.3056C136.822 41.6196 137.559 41.8708 138.47 42.0592C139.381 42.2475 140.37 42.4202 141.437 42.5772C142.536 42.7028 143.635 42.9069 144.734 43.1895C145.833 43.4721 146.822 43.8802 147.701 44.414C148.612 44.9164 149.349 45.6228 149.915 46.5333C150.48 47.4125 150.762 48.5742 150.762 50.0185C150.762 51.5884 150.291 52.9856 149.349 54.2101C148.407 55.4032 147.042 56.3451 145.252 57.0359C143.494 57.7266 141.343 58.072 138.8 58.072Z" fill="#73768D"/>
<path d="M120.169 58.0712C117.187 58.0712 114.863 57.3177 113.199 55.8106C111.535 54.2721 110.703 51.9958 110.703 48.9816V26.752H118.05V48.8874C118.05 49.9549 118.333 50.787 118.898 51.3835C119.463 51.9487 120.232 52.2313 121.206 52.2313C122.367 52.2313 123.356 51.9173 124.173 51.2893L126.151 56.4699C125.397 57.0037 124.487 57.4119 123.419 57.6945C122.383 57.9456 121.3 58.0712 120.169 58.0712ZM106.794 38.5732V32.9216H124.361V38.5732H106.794Z" fill="#73768D"/>
<path d="M92.6716 58.072C89.783 58.072 87.2398 57.5069 85.0419 56.3765C82.8755 55.2462 81.1957 53.7077 80.0026 51.7611C78.8094 49.783 78.2129 47.5381 78.2129 45.0262C78.2129 42.483 78.7938 40.2381 79.9555 38.2914C81.1486 36.3134 82.7656 34.7749 84.8064 33.6759C86.8473 32.5456 89.155 31.9805 91.7296 31.9805C94.2101 31.9805 96.4393 32.5142 98.4174 33.5818C100.427 34.6179 102.012 36.125 103.174 38.103C104.336 40.0497 104.917 42.3888 104.917 45.1204C104.917 45.403 104.901 45.7327 104.87 46.1095C104.838 46.4548 104.807 46.7845 104.775 47.0985H84.1942V42.8127H100.913L98.0877 44.0843C98.0877 42.7656 97.8208 41.6196 97.287 40.6463C96.7533 39.6729 96.0154 38.9194 95.0735 38.3856C94.1316 37.8205 93.0326 37.5379 91.7767 37.5379C90.5208 37.5379 89.4062 37.8205 88.4329 38.3856C87.4909 38.9194 86.7531 39.6886 86.2193 40.6934C85.6856 41.6667 85.4187 42.8284 85.4187 44.1785V45.3088C85.4187 46.6903 85.717 47.9148 86.3135 48.9824C86.9415 50.0185 87.8049 50.8191 88.9038 51.3843C90.0341 51.9181 91.3529 52.1849 92.86 52.1849C94.2101 52.1849 95.3875 51.9809 96.3922 51.5727C97.4283 51.1645 98.3703 50.5523 99.218 49.7359L103.127 53.9746C101.965 55.2933 100.505 56.3137 98.747 57.0359C96.9888 57.7266 94.9636 58.072 92.6716 58.072Z" fill="#73768D"/>
<path d="M62.9597 58.072C60.0711 58.072 57.5278 57.5069 55.33 56.3765C53.1635 55.2462 51.4838 53.7077 50.2906 51.7611C49.0975 49.783 48.501 47.5381 48.501 45.0262C48.501 42.483 49.0818 40.2381 50.2436 38.2914C51.4367 36.3134 53.0537 34.7749 55.0945 33.6759C57.1354 32.5456 59.4431 31.9805 62.0177 31.9805C64.4981 31.9805 66.7274 32.5142 68.7054 33.5818C70.7149 34.6179 72.3005 36.125 73.4622 38.103C74.6239 40.0497 75.2048 42.3888 75.2048 45.1204C75.2048 45.403 75.1891 45.7327 75.1577 46.1095C75.1263 46.4548 75.0949 46.7845 75.0635 47.0985H54.4823V42.8127H71.2016L68.3758 44.0843C68.3758 42.7656 68.1089 41.6196 67.5751 40.6463C67.0414 39.6729 66.3035 38.9194 65.3616 38.3856C64.4196 37.8205 63.3207 37.5379 62.0648 37.5379C60.8089 37.5379 59.6943 37.8205 58.721 38.3856C57.779 38.9194 57.0412 39.6886 56.5074 40.6934C55.9736 41.6667 55.7068 42.8284 55.7068 44.1785V45.3088C55.7068 46.6903 56.005 47.9148 56.6016 48.9824C57.2296 50.0185 58.093 50.8191 59.1919 51.3843C60.3222 51.9181 61.6409 52.1849 63.148 52.1849C64.4981 52.1849 65.6756 51.9809 66.6803 51.5727C67.7164 51.1645 68.6583 50.5523 69.5061 49.7359L73.4151 53.9746C72.2534 55.2933 70.7934 56.3137 69.0351 57.0359C67.2768 57.7266 65.2517 58.072 62.9597 58.072Z" fill="#73768D"/>
<path d="M33.2543 31.9805C35.2638 31.9805 37.0377 32.3886 38.5762 33.205C40.1461 33.9899 41.3706 35.2144 42.2498 36.8785C43.1603 38.5112 43.6156 40.6149 43.6156 43.1895V57.6952H36.2685V44.3198C36.2685 42.2789 35.8446 40.7718 34.9969 39.7985C34.1491 38.8252 32.956 38.3385 31.4175 38.3385C30.35 38.3385 29.3924 38.5897 28.5446 39.0921C27.6969 39.563 27.0375 40.2852 26.5666 41.2585C26.0956 42.2318 25.8601 43.4721 25.8601 44.9791V57.6952H18.513V44.3198C18.513 42.2789 18.0892 40.7718 17.2414 39.7985C16.4251 38.8252 15.2477 38.3385 13.7092 38.3385C12.6417 38.3385 11.684 38.5897 10.8363 39.0921C9.98854 39.563 9.32919 40.2852 8.85822 41.2585C8.38725 42.2318 8.15177 43.4721 8.15177 44.9791V57.6952H0.804688V32.3572H7.82209V39.2805L6.50338 37.2553C7.38252 35.5284 8.62274 34.2254 10.224 33.3463C11.8567 32.4357 13.7092 31.9805 15.7814 31.9805C18.1049 31.9805 20.13 32.577 21.8569 33.7701C23.6152 34.9319 24.7769 36.7215 25.3421 39.1392L22.7517 38.4327C23.5995 36.4547 24.9496 34.8848 26.8021 33.723C28.6859 32.5613 30.8367 31.9805 33.2543 31.9805Z" fill="#73768D"/>
<path d="M122.193 69.8926H123.714L127.065 75.3139L130.38 69.8926H131.901L127.725 76.7608V83.043H126.443V76.7608L122.193 69.8926Z" fill="white"/>
<path d="M113.363 72.09L112.356 73.0607C111.623 72.3525 110.817 71.8092 109.938 71.4307C109.071 71.0522 108.174 70.8629 107.246 70.8629C106.318 70.8629 105.39 71.1132 104.462 71.6138C103.534 72.1144 102.807 72.7921 102.282 73.6468C101.769 74.4893 101.513 75.4051 101.513 76.3941C101.513 77.9326 102.087 79.2758 103.235 80.4235C104.395 81.5591 105.842 82.1268 107.575 82.1268C108.894 82.1268 110.024 81.7605 110.964 81.0279C111.916 80.2831 112.484 79.2758 112.667 78.0059H108.473V76.7421H114.151C114.114 78.8301 113.491 80.4601 112.283 81.6323C111.074 82.7923 109.492 83.3723 107.539 83.3723C105.292 83.3723 103.491 82.6824 102.136 81.3027C100.793 79.9229 100.121 78.305 100.121 76.4491C100.121 74.5809 100.793 72.9692 102.136 71.6138C103.479 70.2463 105.243 69.5625 107.429 69.5625C109.615 69.5625 111.593 70.405 113.363 72.09Z" fill="white"/>
<path d="M84.2578 69.8926H91.8037V71.193H85.5765V75.2956H91.7488V76.5777H85.5765V81.7426H91.7488V83.043H84.2578V69.8926Z" fill="white"/>
<path d="M68.5469 71.1747V69.8926H75.7631V71.1747H72.8327V83.043H71.4957V71.1747H68.5469Z" fill="white"/>
<path d="M55.0816 69.3613L61.2172 83.0429H59.8069L57.7373 78.5556H52.0595L50.0082 83.0429H48.543L54.7519 69.3613H55.0816ZM54.9167 72.2735L52.6639 77.2186H57.1512L54.9167 72.2735Z" fill="white"/>
<path d="M32.0518 69.8926H34.6709C36.1361 69.8926 37.1373 69.9597 37.6746 70.094C38.2118 70.2161 38.6697 70.4237 39.0482 70.7168C39.439 71.0098 39.7442 71.3883 39.964 71.8523C40.1838 72.3163 40.2937 72.8291 40.2937 73.3908C40.2937 74.5142 39.8968 75.3994 39.1032 76.0465C38.3095 76.6815 37.1862 76.9745 35.7331 76.9257L40.4768 83.043H38.8468L34.1214 76.9257H33.3705V83.043H32.0518V69.8926ZM33.3705 71.1747V75.6436H35.6416C36.7649 75.6558 37.5891 75.4849 38.1141 75.1308C38.6514 74.7645 38.92 74.1906 38.92 73.4091C38.92 72.6277 38.6575 72.0599 38.1325 71.7058C37.6074 71.3517 36.7954 71.1747 35.6965 71.1747H33.3705Z" fill="white"/>
<path d="M16.2861 71.1747V69.8926H23.5024V71.1747H20.5719V83.043H19.2349V71.1747H16.2861Z" fill="white"/>
<path d="M0.515625 80.5884L1.63286 79.929C2.41432 81.3698 3.32398 82.0902 4.36185 82.0902C5.03342 82.0902 5.6073 81.8765 6.0835 81.4492C6.5597 81.0218 6.7978 80.4907 6.7978 79.8557C6.7978 79.3551 6.59633 78.8484 6.19339 78.3356C5.79045 77.8227 5.11889 77.2183 4.1787 76.5223C3.25072 75.8141 2.62189 75.2891 2.29222 74.9472C1.97475 74.5931 1.73665 74.2207 1.57792 73.83C1.43139 73.427 1.35813 73.0241 1.35813 72.6212C1.35813 71.7664 1.65728 71.046 2.25559 70.46C2.8661 69.8617 3.62924 69.5625 4.54501 69.5625C5.26541 69.5625 5.89424 69.7457 6.43149 70.112C6.96874 70.4661 7.48768 70.9972 7.9883 71.7054L6.926 72.5296C6.58412 72.0656 6.23002 71.681 5.86371 71.3757C5.49741 71.0705 5.04563 70.9178 4.50838 70.9178C3.98334 70.9178 3.54987 71.0766 3.20798 71.394C2.87831 71.7115 2.71347 72.1144 2.71347 72.6029C2.71347 73.0913 2.85999 73.5186 3.15304 73.8849C3.45829 74.239 4.13596 74.8068 5.18604 75.5883C6.24834 76.3697 7.01758 77.0901 7.49378 77.7495C7.98219 78.4088 8.2264 79.1048 8.2264 79.8374C8.2264 80.7898 7.85398 81.6201 7.10916 82.3283C6.37654 83.0243 5.52183 83.3723 4.54501 83.3723C2.82336 83.3723 1.48023 82.4443 0.515625 80.5884Z" fill="white"/>
<path d="M110.055 4.82617H111.75L116.06 14.4574L120.228 4.82617H121.947L114.482 21.8987H112.786L115.188 16.3884L110.055 4.82617Z" fill="#73768C"/>
<path d="M105.042 15.3535C105.042 15.7774 105.097 16.0286 105.207 16.1071C105.317 16.1856 105.6 16.2248 106.055 16.2248H107.021V17.5906C106.361 17.7005 105.843 17.7554 105.466 17.7554C104.76 17.7554 104.242 17.5828 103.912 17.2374C103.582 16.892 103.418 16.3504 103.418 15.6125V6.19321H101.204V4.82741H103.418V0H105.042V4.82741H107.586V6.19321H105.042V15.3535Z" fill="#73768C"/>
<path d="M95.124 1.34226C95.124 0.981182 95.2496 0.667204 95.5008 0.400322C95.7677 0.133441 96.0817 0 96.4427 0C96.8195 0 97.1335 0.133441 97.3847 0.400322C97.6515 0.651505 97.785 0.965483 97.785 1.34226C97.785 1.70333 97.6515 2.01731 97.3847 2.28419C97.1335 2.53537 96.8195 2.66096 96.4427 2.66096C96.0817 2.66096 95.7677 2.52752 95.5008 2.26064C95.2496 1.99376 95.124 1.68763 95.124 1.34226ZM95.6421 4.82741H97.2669V17.3316H95.6421V4.82741Z" fill="#73768C"/>
<path d="M80.248 4.82617H81.9671L86.1351 14.3397L90.3032 4.82617H92.0222L86.3 17.7542H86.0174L80.248 4.82617Z" fill="#73768C"/>
<path d="M74.5459 1.34226C74.5459 0.981182 74.6715 0.667204 74.9227 0.400322C75.1896 0.133441 75.5035 0 75.8646 0C76.2414 0 76.5554 0.133441 76.8065 0.400322C77.0734 0.651505 77.2069 0.965483 77.2069 1.34226C77.2069 1.70333 77.0734 2.01731 76.8065 2.28419C76.5554 2.53537 76.2414 2.66096 75.8646 2.66096C75.5035 2.66096 75.1896 2.52752 74.9227 2.26064C74.6715 1.99376 74.5459 1.68763 74.5459 1.34226ZM75.064 4.82741H76.6888V17.3316H75.064V4.82741Z" fill="#73768C"/>
<path d="M68.9438 15.3535C68.9438 15.7774 68.9988 16.0286 69.1087 16.1071C69.2186 16.1856 69.5012 16.2248 69.9564 16.2248H70.9219V17.5906C70.2626 17.7005 69.7445 17.7554 69.3677 17.7554C68.6613 17.7554 68.1432 17.5828 67.8135 17.2374C67.4839 16.892 67.319 16.3504 67.319 15.6125V6.19321H65.1055V4.82741H67.319V0H68.9438V4.82741H71.4871V6.19321H68.9438V15.3535Z" fill="#73768C"/>
<path d="M60.8757 4.82577V17.3299H59.298V15.187C57.8694 16.8982 56.2367 17.7538 54.3999 17.7538C52.5632 17.7538 51.009 17.1023 49.7374 15.7993C48.4815 14.4806 47.8535 12.9185 47.8535 11.1132C47.8535 9.2921 48.4893 7.73791 49.7609 6.45061C51.0325 5.1476 52.5553 4.49609 54.3293 4.49609C56.3702 4.49609 58.0264 5.36738 59.298 7.10996V4.82577H60.8757ZM59.3922 11.1367C59.3922 9.70812 58.9134 8.50716 57.9558 7.53383C56.9981 6.5448 55.8207 6.05028 54.4235 6.05028C53.042 6.05028 51.8724 6.5605 50.9148 7.58093C49.9572 8.58565 49.4784 9.77877 49.4784 11.1603C49.4784 12.5418 49.965 13.7427 50.9383 14.7632C51.9117 15.7679 53.0734 16.2703 54.4235 16.2703C55.7893 16.2703 56.9589 15.7836 57.9322 14.8103C58.9055 13.8369 59.3922 12.6124 59.3922 11.1367Z" fill="#73768C"/>
<path d="M42.2164 13.2796L43.5822 13.9861C42.2321 16.4979 40.2383 17.7538 37.6009 17.7538C35.717 17.7538 34.1628 17.1102 32.9383 15.8228C31.7138 14.5198 31.1016 12.9578 31.1016 11.1367C31.1016 9.31565 31.7138 7.75361 32.9383 6.45061C34.1785 5.1476 35.7013 4.49609 37.5067 4.49609C39.3278 4.49609 40.8506 5.1005 42.0751 6.30932C43.3153 7.51813 43.959 9.16651 44.0061 11.2545H32.7499C32.797 12.7616 33.268 13.9782 34.1628 14.9045C35.0734 15.815 36.1723 16.2703 37.4596 16.2703C39.579 16.2703 41.1646 15.2734 42.2164 13.2796ZM42.2164 9.86511C41.9966 8.672 41.4471 7.73791 40.568 7.06286C39.6889 6.38781 38.6763 6.05028 37.5303 6.05028C35.1754 6.05028 33.6369 7.32189 32.9148 9.86511H42.2164Z" fill="#73768C"/>
<path d="M22.582 4.82577H24.2304V6.63899C24.67 5.90114 25.0939 5.35953 25.502 5.01416C25.9259 4.66878 26.389 4.49609 26.8914 4.49609C27.4094 4.49609 27.9275 4.63738 28.4456 4.91996L27.5978 6.28577C27.3623 6.14448 27.119 6.07383 26.8678 6.07383C26.3812 6.07383 25.918 6.32501 25.4785 6.82738C25.0546 7.32974 24.7406 7.98125 24.5365 8.78189C24.3325 9.56683 24.2304 11.0033 24.2304 13.0912V17.3299H22.582V4.82577Z" fill="#73768C"/>
<path d="M18.6384 3.5558L17.3196 4.56838C15.7498 2.62172 13.7324 1.64838 11.2677 1.64838C9.25827 1.64838 7.52354 2.35483 6.06354 3.76773C4.61924 5.18064 3.8971 6.91536 3.8971 8.97192C3.8971 11.0128 4.60355 12.724 6.01645 14.1055C7.44504 15.4713 9.22687 16.1542 11.3619 16.1542C13.7481 16.1542 15.7341 15.2279 17.3196 13.3755L18.6384 14.388C17.8063 15.487 16.7545 16.3268 15.4829 16.9077C14.2113 17.4729 12.8062 17.7554 11.2677 17.7554C8.58321 17.7554 6.38537 16.9077 4.67419 15.2122C2.96301 13.5167 2.10742 11.3738 2.10742 8.78353C2.10742 7.18224 2.49989 5.70655 3.28484 4.35644C4.08548 2.99064 5.1844 1.92312 6.58161 1.15387C7.99451 0.384623 9.50945 0 11.1264 0C12.7434 0 14.1956 0.306129 15.4829 0.918386C16.7702 1.53064 17.822 2.40978 18.6384 3.5558Z" fill="#73768C"/>
</svg>
