<svg width="264" height="80" viewBox="0 0 264 80" fill="none" xmlns="http://www.w3.org/2000/svg">
<path d="M129.067 62.705V61.0566H138.345V62.705H134.578V77.9643H132.859V62.705H129.067Z" fill="white"/>
<path d="M115.855 74.8089L117.292 73.9612C118.297 75.8136 119.466 76.7399 120.801 76.7399C121.664 76.7399 122.402 76.4651 123.014 75.9157C123.626 75.3662 123.933 74.6833 123.933 73.867C123.933 73.2233 123.674 72.5718 123.155 71.9125C122.637 71.2531 121.774 70.476 120.565 69.5812C119.372 68.6706 118.564 67.9956 118.14 67.556C117.731 67.1008 117.425 66.6219 117.221 66.1196C117.033 65.6015 116.939 65.0834 116.939 64.5654C116.939 63.4665 117.323 62.5402 118.093 61.7867C118.878 61.0174 119.859 60.6328 121.036 60.6328C121.962 60.6328 122.771 60.8683 123.462 61.3393C124.152 61.7945 124.82 62.4774 125.463 63.388L124.097 64.4476C123.658 63.8511 123.203 63.3566 122.732 62.9641C122.261 62.5716 121.68 62.3754 120.989 62.3754C120.314 62.3754 119.757 62.5795 119.317 62.9876C118.893 63.3958 118.681 63.9139 118.681 64.5418C118.681 65.1698 118.87 65.7193 119.246 66.1902C119.639 66.6455 120.51 67.3755 121.86 68.3802C123.226 69.3849 124.215 70.3112 124.827 71.1589C125.455 72.0067 125.769 72.9015 125.769 73.8434C125.769 75.0679 125.29 76.1355 124.333 77.046C123.391 77.9408 122.292 78.3883 121.036 78.3883C118.823 78.3883 117.096 77.1951 115.855 74.8089Z" fill="white"/>
<path d="M105.677 60.375L113.566 77.9656H111.753L109.092 72.1963H101.792L99.1544 77.9656H97.2705L105.253 60.375H105.677ZM105.465 64.1192L102.569 70.4772H108.338L105.465 64.1192Z" fill="white"/>
<path d="M91.793 61.0566H93.4884V77.9643H91.793V61.0566Z" fill="white"/>
<path d="M77.1445 74.8089L78.581 73.9612C79.5857 75.8136 80.7553 76.7399 82.0897 76.7399C82.9531 76.7399 83.691 76.4651 84.3032 75.9157C84.9155 75.3662 85.2216 74.6833 85.2216 73.867C85.2216 73.2233 84.9626 72.5718 84.4445 71.9125C83.9265 71.2531 83.063 70.476 81.8542 69.5812C80.6611 68.6706 79.8526 67.9956 79.4287 67.556C79.0205 67.1008 78.7144 66.6219 78.5103 66.1196C78.3219 65.6015 78.2278 65.0834 78.2278 64.5654C78.2278 63.4665 78.6124 62.5402 79.3816 61.7867C80.1666 61.0174 81.1477 60.6328 82.3252 60.6328C83.2514 60.6328 84.0599 60.8683 84.7506 61.3393C85.4414 61.7945 86.1086 62.4774 86.7523 63.388L85.3864 64.4476C84.9469 63.8511 84.4916 63.3566 84.0206 62.9641C83.5497 62.5716 82.9688 62.3754 82.2781 62.3754C81.603 62.3754 81.0457 62.5795 80.6061 62.9876C80.1823 63.3958 79.9703 63.9139 79.9703 64.5418C79.9703 65.1698 80.1587 65.7193 80.5355 66.1902C80.928 66.6455 81.7992 67.3755 83.1494 68.3802C84.5152 69.3849 85.5042 70.3112 86.1164 71.1589C86.7444 72.0067 87.0584 72.9015 87.0584 73.8434C87.0584 75.0679 86.5796 76.1355 85.6219 77.046C84.68 77.9408 83.5811 78.3883 82.3252 78.3883C80.1116 78.3883 78.3847 77.1951 77.1445 74.8089Z" fill="white"/>
<path d="M62.1143 61.0566H63.8097V71.2531C63.8097 72.3049 63.8333 73.0977 63.8804 73.6315C63.9432 74.1652 64.1316 74.6833 64.4455 75.1856C64.7752 75.6723 65.2305 76.0648 65.8113 76.3631C66.3922 76.6456 67.0123 76.7869 67.6717 76.7869C68.3467 76.7869 68.9354 76.6692 69.4378 76.4337C69.9402 76.1825 70.364 75.8371 70.7094 75.3976C71.0548 74.958 71.2903 74.4792 71.4158 73.9611C71.5571 73.4274 71.6278 72.5247 71.6278 71.2531V61.0566H73.2997V71.2531C73.2997 72.9642 73.127 74.2751 72.7817 75.1856C72.4363 76.0962 71.824 76.8576 70.9449 77.4698C70.0814 78.0821 69.061 78.3882 67.8836 78.3882C66.9417 78.3882 66.0939 78.2391 65.3404 77.9408C64.5868 77.6268 63.9589 77.1951 63.4565 76.6456C62.9541 76.0962 62.6009 75.4839 62.3968 74.8089C62.2085 74.1338 62.1143 72.9486 62.1143 71.2531V61.0566Z" fill="white"/>
<path d="M44.5332 61.0566H46.2522V68.1447H54.8474V61.0566H56.5429V77.9643H54.8474V69.7931H46.2522V77.9643H44.5332V61.0566Z" fill="white"/>
<path d="M31.4453 62.705V61.0566H40.7234V62.705H36.9556V77.9643H35.2366V62.705H31.4453Z" fill="white"/>
<path d="M14.2969 77.9643V61.0566H14.6736L25.9062 74.0082V61.0566H27.5781V77.9643H27.2014L16.0395 65.1776V77.9643H14.2969Z" fill="white"/>
<path d="M0.258789 61.0566H9.9607V62.7286H1.95427V68.0034H9.89006V69.6518H1.95427V76.2924H9.89006V77.9643H0.258789V61.0566Z" fill="white"/>
<path d="M130.016 36.8258H131.64V39.0629C132.928 37.3517 134.49 36.4961 136.327 36.4961C137.269 36.4961 138.116 36.7551 138.87 37.2732C139.623 37.7756 140.157 38.4428 140.471 39.2748C140.785 40.0911 140.942 41.3 140.942 42.9012V49.3299H139.341V43.3722C139.341 41.9122 139.27 40.9232 139.129 40.4051C139.003 39.8871 138.799 39.4475 138.517 39.0864C138.25 38.7253 137.904 38.4506 137.48 38.2622C137.057 38.0738 136.539 37.9796 135.926 37.9796C135.33 37.9796 134.741 38.1288 134.16 38.4271C133.579 38.7253 133.085 39.1414 132.677 39.6751C132.268 40.2089 131.994 40.7583 131.852 41.3235C131.711 41.8887 131.64 43.0268 131.64 44.738V49.3299H130.016V36.8258Z" fill="#73768C"/>
<path d="M111.406 43.1603C111.406 41.3235 112.034 39.7536 113.29 38.4506C114.562 37.1476 116.1 36.4961 117.906 36.4961C119.727 36.4961 121.265 37.1476 122.521 38.4506C123.793 39.7536 124.428 41.3157 124.428 43.1367C124.428 44.9578 123.801 46.5198 122.545 47.8228C121.304 49.1102 119.766 49.7538 117.929 49.7538C116.092 49.7538 114.546 49.1102 113.29 47.8228C112.034 46.5198 111.406 44.9656 111.406 43.1603ZM122.804 43.1838C122.804 41.8023 122.317 40.6092 121.344 39.6045C120.386 38.584 119.24 38.0738 117.906 38.0738C116.587 38.0738 115.449 38.584 114.491 39.6045C113.533 40.6092 113.055 41.8102 113.055 43.2074C113.055 44.6046 113.518 45.7898 114.444 46.7632C115.37 47.7365 116.516 48.2232 117.882 48.2232C119.264 48.2232 120.425 47.7365 121.367 46.7632C122.325 45.7741 122.804 44.581 122.804 43.1838Z" fill="#73768C"/>
<path d="M103.937 33.3423C103.937 32.9812 104.062 32.6672 104.313 32.4003C104.58 32.1334 104.894 32 105.255 32C105.632 32 105.946 32.1334 106.197 32.4003C106.464 32.6515 106.597 32.9655 106.597 33.3423C106.597 33.7033 106.464 34.0173 106.197 34.2842C105.946 34.5354 105.632 34.661 105.255 34.661C104.894 34.661 104.58 34.5275 104.313 34.2606C104.062 33.9938 103.937 33.6876 103.937 33.3423ZM104.455 36.8274H106.079V49.3316H104.455V36.8274Z" fill="#73768C"/>
<path d="M97.1577 47.3535C97.1577 47.7774 97.2127 48.0286 97.3226 48.1071C97.4325 48.1856 97.715 48.2248 98.1703 48.2248H99.1358V49.5906C98.4764 49.7005 97.9584 49.7554 97.5816 49.7554C96.8751 49.7554 96.3571 49.5828 96.0274 49.2374C95.6977 48.892 95.5329 48.3504 95.5329 47.6125V38.1932H93.3193V36.8274H95.5329V32H97.1577V36.8274H99.7009V38.1932H97.1577V47.3535Z" fill="#73768C"/>
<path d="M87.9129 36.8258V49.3299H86.3351V47.187C84.9065 48.8982 83.2738 49.7538 81.4371 49.7538C79.6003 49.7538 78.0461 49.1023 76.7745 47.7993C75.5186 46.4806 74.8906 44.9185 74.8906 43.1132C74.8906 41.2921 75.5264 39.7379 76.798 38.4506C78.0697 37.1476 79.5924 36.4961 81.3664 36.4961C83.4073 36.4961 85.0635 37.3674 86.3351 39.11V36.8258H87.9129ZM86.4293 43.1367C86.4293 41.7081 85.9505 40.5072 84.9929 39.5338C84.0352 38.5448 82.8578 38.0503 81.4606 38.0503C80.0791 38.0503 78.9095 38.5605 77.9519 39.5809C76.9943 40.5857 76.5155 41.7788 76.5155 43.1603C76.5155 44.5418 77.0021 45.7427 77.9755 46.7632C78.9488 47.7679 80.1105 48.2703 81.4606 48.2703C82.8264 48.2703 83.996 47.7836 84.9693 46.8103C85.9426 45.8369 86.4293 44.6124 86.4293 43.1367Z" fill="#73768C"/>
<path d="M58.6484 36.8262H60.3675L64.5355 46.3397L68.7036 36.8262H70.4226L64.7004 49.7542H64.4178L58.6484 36.8262Z" fill="#73768C"/>
<path d="M41.2168 43.1603C41.2168 41.3235 41.8448 39.7536 43.1007 38.4506C44.3723 37.1476 45.9108 36.4961 47.7161 36.4961C49.5372 36.4961 51.0757 37.1476 52.3316 38.4506C53.6032 39.7536 54.239 41.3157 54.239 43.1367C54.239 44.9578 53.6111 46.5198 52.3552 47.8228C51.1149 49.1102 49.5765 49.7538 47.7397 49.7538C45.9029 49.7538 44.3566 49.1102 43.1007 47.8228C41.8448 46.5198 41.2168 44.9656 41.2168 43.1603ZM52.6142 43.1838C52.6142 41.8023 52.1275 40.6092 51.1542 39.6045C50.1966 38.584 49.0505 38.0738 47.7161 38.0738C46.3974 38.0738 45.2593 38.584 44.3016 39.6045C43.344 40.6092 42.8652 41.8102 42.8652 43.2074C42.8652 44.6046 43.3283 45.7898 44.2545 46.7632C45.1808 47.7365 46.3268 48.2232 47.6926 48.2232C49.0741 48.2232 50.2358 47.7365 51.1777 46.7632C52.1354 45.7741 52.6142 44.581 52.6142 43.1838Z" fill="#73768C"/>
<path d="M24.8418 36.8258H26.4666V39.0629C27.7539 37.3517 29.316 36.4961 31.1527 36.4961C32.0947 36.4961 32.9424 36.7551 33.696 37.2732C34.4495 37.7756 34.9833 38.4428 35.2973 39.2748C35.6112 40.0911 35.7682 41.3 35.7682 42.9012V49.3299H34.1669V43.3722C34.1669 41.9122 34.0963 40.9232 33.955 40.4051C33.8294 39.8871 33.6253 39.4475 33.3427 39.0864C33.0759 38.7253 32.7305 38.4506 32.3066 38.2622C31.8827 38.0738 31.3647 37.9796 30.7524 37.9796C30.1559 37.9796 29.5672 38.1288 28.9863 38.4271C28.4054 38.7253 27.9109 39.1414 27.5028 39.6751C27.0946 40.2089 26.8199 40.7583 26.6786 41.3235C26.5373 41.8887 26.4666 43.0268 26.4666 44.738V49.3299H24.8418V36.8258Z" fill="#73768C"/>
<path d="M7.87891 36.8258H9.50374V39.0629C10.7911 37.3517 12.3531 36.4961 14.1899 36.4961C15.1318 36.4961 15.9795 36.7551 16.7331 37.2732C17.4866 37.7756 18.0204 38.4428 18.3344 39.2748C18.6483 40.0911 18.8053 41.3 18.8053 42.9012V49.3299H17.204V43.3722C17.204 41.9122 17.1334 40.9232 16.9921 40.4051C16.8665 39.8871 16.6624 39.4475 16.3799 39.0864C16.113 38.7253 15.7676 38.4506 15.3437 38.2622C14.9199 38.0738 14.4018 37.9796 13.7895 37.9796C13.193 37.9796 12.6043 38.1288 12.0234 38.4271C11.4426 38.7253 10.948 39.1414 10.5399 39.6751C10.1317 40.2089 9.85697 40.7583 9.71568 41.3235C9.57439 41.8887 9.50374 43.0268 9.50374 44.738V49.3299H7.87891V36.8258Z" fill="#73768C"/>
<path d="M0 32.4238H1.69548V49.3315H0V32.4238Z" fill="#73768C"/>
</svg>
