<svg width="353" height="79" viewBox="0 0 353 79" fill="none" xmlns="http://www.w3.org/2000/svg">
<path opacity="0.6" d="M146.755 3.68359V32.0472H144.235L127.477 8.29546H127.255V32.0472H124.666V3.68359H127.172L143.985 27.4631H144.207V3.68359H146.755Z" fill="#ABACBA"/>
<path opacity="0.6" d="M103.864 3.68359V32.0472H101.274V3.68359H103.864Z" fill="#ABACBA"/>
<path opacity="0.6" d="M81.751 17.8645C81.751 20.8191 81.2247 23.3904 80.1721 25.5787C79.1196 27.7576 77.67 29.4473 75.8234 30.6476C73.9861 31.8386 71.8717 32.4341 69.4804 32.4341C67.089 32.4341 64.9701 31.8386 63.1235 30.6476C61.2861 29.4473 59.8412 27.7576 58.7886 25.5787C57.7453 23.3904 57.2236 20.8191 57.2236 17.8645C57.2236 14.91 57.7453 12.3432 58.7886 10.1642C59.8412 7.97603 61.2907 6.2864 63.1373 5.09535C64.9839 3.89506 67.0983 3.29492 69.4804 3.29492C71.8717 3.29492 73.9861 3.89506 75.8234 5.09535C77.67 6.2864 79.1196 7.97603 80.1721 10.1642C81.2247 12.3432 81.751 14.91 81.751 17.8645ZM79.2304 17.8645C79.2304 15.3255 78.8057 13.1511 77.9562 11.3414C77.1068 9.52255 75.9481 8.13299 74.48 7.17276C73.012 6.21254 71.3454 5.73242 69.4804 5.73242C67.6246 5.73242 65.9626 6.21254 64.4946 7.17276C63.0265 8.13299 61.8632 9.51793 61.0045 11.3276C60.1551 13.1373 59.7304 15.3162 59.7304 17.8645C59.7304 20.4036 60.1551 22.5779 61.0045 24.3876C61.854 26.1973 63.0127 27.5868 64.4807 28.5563C65.9488 29.5165 67.6153 29.9966 69.4804 29.9966C71.3454 29.9966 73.012 29.5165 74.48 28.5563C75.9573 27.5961 77.1206 26.2111 77.9701 24.4015C78.8195 22.5826 79.2396 20.4036 79.2304 17.8645Z" fill="#ABACBA"/>
<path opacity="0.6" d="M35.114 3.68359H37.7039V24.1392C37.6946 25.9858 37.3623 27.5277 36.7067 28.7649C36.0512 29.9929 35.1464 30.9116 33.9922 31.521C32.8381 32.1303 31.5132 32.435 30.0174 32.435C28.5494 32.435 27.2383 32.1626 26.0842 31.6179C24.9301 31.0732 24.0206 30.3068 23.3559 29.3189C22.7003 28.331 22.3726 27.1722 22.3726 25.8427H24.9209C24.9209 26.6829 25.1424 27.4261 25.5856 28.0724C26.0288 28.7095 26.6336 29.2081 27.3999 29.5682C28.1755 29.9283 29.048 30.1083 30.0174 30.1083C31.0238 30.1083 31.9056 29.896 32.6627 29.4712C33.429 29.0465 34.0292 28.3956 34.4631 27.5185C34.8971 26.6321 35.114 25.5057 35.114 24.1392V3.68359Z" fill="#ABACBA"/>
<path d="M308.827 3.98828L329.18 34.4556H329.433L349.787 3.98828H352.315L330.571 36.3519L352.315 68.7156H349.787L329.433 38.2482H329.18L308.827 68.7156H306.298L328.043 36.3519L306.298 3.98828H308.827Z" fill="white"/>
<path d="M298.248 3.98828H300.271V46.8448C300.271 51.2274 299.249 55.1464 297.205 58.6019C295.182 62.0363 292.422 64.7544 288.924 66.756C285.427 68.7366 281.455 69.7269 277.009 69.7269C272.606 69.7269 268.644 68.7261 265.126 66.7244C261.607 64.7228 258.826 62.0047 256.782 58.5703C254.738 55.1148 253.727 51.2063 253.748 46.8448V3.98828H255.771V46.8448C255.771 50.8481 256.687 54.4195 258.52 57.5589C260.374 60.6984 262.903 63.1741 266.105 64.9862C269.308 66.7982 272.943 67.7042 277.009 67.7042C281.076 67.7042 284.71 66.7982 287.913 64.9862C291.116 63.1741 293.634 60.6984 295.467 57.5589C297.321 54.4195 298.248 50.8481 298.248 46.8448V3.98828Z" fill="white"/>
<path d="M247.902 0.955078L227.042 78.4508H224.893L245.752 0.955078H247.902Z" fill="white"/>
<path d="M218.992 3.98828V68.7156H216.969V3.98828H218.992Z" fill="white"/>
<path d="M201.839 3.98828H203.862V46.8448C203.862 51.2274 202.84 55.1464 200.796 58.6019C198.773 62.0363 196.013 64.7544 192.516 66.756C189.018 68.7366 185.046 69.7269 180.601 69.7269C176.197 69.7269 172.236 68.7261 168.717 66.7244C165.198 64.7228 162.417 62.0047 160.373 58.5703C158.329 55.1148 157.318 51.2063 157.339 46.8448V3.98828H159.362V46.8448C159.362 50.8481 160.278 54.4195 162.112 57.5589C163.966 60.6984 166.494 63.1741 169.697 64.9862C172.899 66.7982 176.534 67.7042 180.601 67.7042C184.667 67.7042 188.302 66.7982 191.504 64.9862C194.707 63.1741 197.225 60.6984 199.058 57.5589C200.912 54.4195 201.839 50.8481 201.839 46.8448V3.98828Z" fill="white"/>
<path opacity="0.6" d="M147.827 42.497L146.9 42.7583C146.81 42.497 146.681 42.2602 146.514 42.0481C146.347 41.836 146.13 41.6674 145.861 41.5424C145.596 41.4174 145.266 41.3549 144.872 41.3549C144.281 41.3549 143.796 41.4951 143.417 41.7754C143.039 42.0557 142.849 42.4174 142.849 42.8606C142.849 43.2356 142.978 43.5405 143.236 43.7754C143.497 44.0065 143.899 44.1902 144.44 44.3265L145.758 44.6504C146.489 44.8284 147.037 45.1106 147.4 45.497C147.768 45.8833 147.952 46.3682 147.952 46.9515C147.952 47.444 147.815 47.8815 147.542 48.264C147.27 48.6466 146.889 48.9477 146.4 49.1674C145.916 49.3833 145.353 49.4913 144.713 49.4913C143.861 49.4913 143.158 49.3 142.605 48.9174C142.052 48.5311 141.698 47.9743 141.542 47.247L142.514 47.0083C142.639 47.5273 142.883 47.9193 143.247 48.1845C143.614 48.4496 144.097 48.5822 144.696 48.5822C145.366 48.5822 145.902 48.4326 146.304 48.1333C146.705 47.8303 146.906 47.4515 146.906 46.997C146.906 46.6447 146.789 46.3493 146.554 46.1106C146.319 45.8682 145.963 45.6902 145.486 45.5765L144.06 45.2356C143.302 45.0538 142.741 44.7659 142.378 44.372C142.014 43.978 141.832 43.4894 141.832 42.9061C141.832 42.425 141.963 42.0027 142.224 41.639C142.486 41.2716 142.845 40.9837 143.304 40.7754C143.762 40.5671 144.285 40.4629 144.872 40.4629C145.671 40.4629 146.31 40.6447 146.787 41.0083C147.268 41.3682 147.614 41.8644 147.827 42.497Z" fill="#ABACBA"/>
<path opacity="0.6" d="M138.343 42.497L137.417 42.7583C137.326 42.497 137.197 42.2602 137.031 42.0481C136.864 41.836 136.646 41.6674 136.377 41.5424C136.112 41.4174 135.783 41.3549 135.389 41.3549C134.798 41.3549 134.313 41.4951 133.934 41.7754C133.555 42.0557 133.366 42.4174 133.366 42.8606C133.366 43.2356 133.495 43.5405 133.752 43.7754C134.014 44.0065 134.415 44.1902 134.957 44.3265L136.275 44.6504C137.006 44.8284 137.553 45.1106 137.917 45.497C138.284 45.8833 138.468 46.3682 138.468 46.9515C138.468 47.444 138.332 47.8815 138.059 48.264C137.786 48.6466 137.406 48.9477 136.917 49.1674C136.432 49.3833 135.87 49.4913 135.23 49.4913C134.377 49.4913 133.675 49.3 133.122 48.9174C132.569 48.5311 132.214 47.9743 132.059 47.247L133.031 47.0083C133.156 47.5273 133.4 47.9193 133.764 48.1845C134.131 48.4496 134.614 48.5822 135.212 48.5822C135.883 48.5822 136.419 48.4326 136.82 48.1333C137.222 47.8303 137.423 47.4515 137.423 46.997C137.423 46.6447 137.305 46.3493 137.07 46.1106C136.836 45.8682 136.48 45.6902 136.002 45.5765L134.576 45.2356C133.819 45.0538 133.258 44.7659 132.894 44.372C132.531 43.978 132.349 43.4894 132.349 42.9061C132.349 42.425 132.48 42.0027 132.741 41.639C133.002 41.2716 133.362 40.9837 133.82 40.7754C134.279 40.5671 134.802 40.4629 135.389 40.4629C136.188 40.4629 136.826 40.6447 137.303 41.0083C137.784 41.3682 138.131 41.8644 138.343 42.497Z" fill="#ABACBA"/>
<path opacity="0.6" d="M124.731 49.5083C124.204 49.5083 123.723 49.4061 123.287 49.2015C122.852 48.9932 122.505 48.694 122.248 48.3038C121.99 47.9099 121.861 47.4326 121.861 46.872C121.861 46.4402 121.943 46.0765 122.106 45.7811C122.269 45.4856 122.5 45.2432 122.799 45.0538C123.098 44.8644 123.452 44.7148 123.861 44.6049C124.27 44.4951 124.721 44.4099 125.214 44.3493C125.702 44.2886 126.115 44.2356 126.452 44.1902C126.793 44.1447 127.053 44.0727 127.231 43.9743C127.409 43.8758 127.498 43.7167 127.498 43.497V43.2924C127.498 42.6977 127.32 42.2299 126.964 41.889C126.611 41.5443 126.104 41.372 125.441 41.372C124.812 41.372 124.299 41.5102 123.901 41.7868C123.507 42.0633 123.231 42.389 123.072 42.764L122.111 42.4174C122.308 41.9402 122.581 41.5595 122.93 41.2754C123.278 40.9875 123.668 40.7811 124.1 40.6561C124.532 40.5273 124.969 40.4629 125.412 40.4629C125.746 40.4629 126.092 40.5065 126.452 40.5936C126.816 40.6807 127.153 40.8322 127.464 41.0481C127.774 41.2602 128.026 41.5576 128.219 41.9402C128.412 42.319 128.509 42.8 128.509 43.3833V49.3095H127.498V47.9288H127.435C127.314 48.1864 127.134 48.4364 126.895 48.6788C126.657 48.9212 126.358 49.1201 125.998 49.2754C125.638 49.4307 125.215 49.5083 124.731 49.5083ZM124.867 48.5822C125.405 48.5822 125.871 48.4629 126.265 48.2243C126.659 47.9856 126.962 47.6693 127.174 47.2754C127.39 46.8777 127.498 46.4402 127.498 45.9629V44.7015C127.422 44.7735 127.295 44.8379 127.117 44.8947C126.943 44.9515 126.74 45.0027 126.509 45.0481C126.282 45.0898 126.055 45.1258 125.827 45.1561C125.6 45.1864 125.395 45.2129 125.214 45.2356C124.721 45.2962 124.301 45.3909 123.952 45.5197C123.604 45.6485 123.337 45.8265 123.151 46.0538C122.965 46.2773 122.873 46.5652 122.873 46.9174C122.873 47.4477 123.062 47.8587 123.441 48.1504C123.82 48.4383 124.295 48.5822 124.867 48.5822Z" fill="#ABACBA"/>
<path opacity="0.6" d="M118.337 37.6719V49.3082H117.326V37.6719H118.337Z" fill="#ABACBA"/>
<path opacity="0.6" d="M110.549 49.4913C109.769 49.4913 109.089 49.2962 108.509 48.9061C107.933 48.5159 107.486 47.9818 107.168 47.3038C106.85 46.6258 106.691 45.853 106.691 44.9856C106.691 44.1106 106.852 43.3322 107.174 42.6504C107.5 41.9686 107.95 41.4345 108.526 41.0481C109.102 40.658 109.77 40.4629 110.532 40.4629C111.115 40.4629 111.644 40.5765 112.117 40.8038C112.591 41.0273 112.981 41.3436 113.288 41.7527C113.598 42.158 113.793 42.6315 113.873 43.1731H112.85C112.744 42.6807 112.488 42.2602 112.083 41.9118C111.681 41.5595 111.17 41.3833 110.549 41.3833C109.992 41.3833 109.5 41.5349 109.072 41.8379C108.644 42.1371 108.308 42.5557 108.066 43.0936C107.827 43.6277 107.708 44.247 107.708 44.9515C107.708 45.6599 107.825 46.2868 108.06 46.8322C108.295 47.3739 108.625 47.7981 109.049 48.1049C109.477 48.4118 109.977 48.5652 110.549 48.5652C110.935 48.5652 111.288 48.4932 111.606 48.3493C111.928 48.2015 112.197 47.9932 112.413 47.7243C112.632 47.4553 112.78 47.1352 112.856 46.764H113.878C113.803 47.2905 113.615 47.7602 113.316 48.1731C113.02 48.5822 112.636 48.9042 112.163 49.139C111.693 49.3739 111.155 49.4913 110.549 49.4913Z" fill="#ABACBA"/>
<path opacity="0.6" d="M100.422 49.3091V40.5819H101.405V41.9228H101.479C101.653 41.4834 101.956 41.1292 102.388 40.8603C102.823 40.5875 103.316 40.4512 103.865 40.4512C103.948 40.4512 104.041 40.4531 104.143 40.4569C104.246 40.4606 104.331 40.4644 104.399 40.4682V41.4966C104.354 41.4891 104.274 41.4777 104.161 41.4625C104.047 41.4474 103.924 41.4398 103.791 41.4398C103.337 41.4398 102.931 41.5364 102.575 41.7296C102.223 41.919 101.945 42.1822 101.74 42.5194C101.536 42.8565 101.433 43.2409 101.433 43.6728V49.3091H100.422Z" fill="#ABACBA"/>
<path opacity="0.6" d="M93.3738 49.4913C92.5594 49.4913 91.8548 49.3019 91.2601 48.9231C90.6654 48.5405 90.2052 48.0121 89.8794 47.3379C89.5575 46.6599 89.3965 45.8796 89.3965 44.997C89.3965 44.1182 89.5575 43.3379 89.8794 42.6561C90.2052 41.9705 90.6541 41.4345 91.226 41.0481C91.8018 40.658 92.4666 40.4629 93.2204 40.4629C93.6938 40.4629 94.1503 40.55 94.5897 40.7243C95.0291 40.8947 95.423 41.158 95.7715 41.514C96.1238 41.8663 96.4022 42.3114 96.6067 42.8493C96.8113 43.3833 96.9135 44.0159 96.9135 44.747V45.247H90.0954V44.3549H95.8794C95.8794 43.7943 95.7658 43.2905 95.5385 42.8436C95.3151 42.3928 95.0026 42.0368 94.601 41.7754C94.2033 41.514 93.7431 41.3833 93.2204 41.3833C92.6673 41.3833 92.1806 41.5311 91.7601 41.8265C91.3397 42.122 91.0101 42.5121 90.7715 42.997C90.5366 43.4818 90.4173 44.0121 90.4135 44.5879V45.122C90.4135 45.8152 90.5328 46.4212 90.7715 46.9402C91.0139 47.4553 91.3567 47.8549 91.7999 48.139C92.2431 48.4231 92.7677 48.5652 93.3738 48.5652C93.7866 48.5652 94.1484 48.5008 94.459 48.372C94.7734 48.2432 95.0366 48.0708 95.2488 47.8549C95.4647 47.6352 95.6275 47.3947 95.7374 47.1333L96.6976 47.4458C96.565 47.8133 96.3472 48.1523 96.0442 48.4629C95.745 48.7735 95.37 49.0235 94.9192 49.2129C94.4722 49.3985 93.9571 49.4913 93.3738 49.4913Z" fill="#ABACBA"/>
<path opacity="0.6" d="M86.362 40.5811V41.4618H82.1973V40.5811H86.362ZM83.4984 38.4902H84.5154V47.03C84.5154 47.3936 84.5779 47.6796 84.7029 47.888C84.8279 48.0925 84.9908 48.2383 85.1916 48.3255C85.3923 48.4088 85.6064 48.4505 85.8336 48.4505C85.9662 48.4505 86.0798 48.4429 86.1745 48.4277C86.2692 48.4088 86.3526 48.3899 86.4245 48.3709L86.6404 49.2857C86.542 49.3236 86.4207 49.3577 86.2768 49.388C86.1329 49.4221 85.9548 49.4391 85.7427 49.4391C85.3715 49.4391 85.0136 49.3577 84.6689 49.1948C84.3279 49.0319 84.0476 48.7895 83.8279 48.4675C83.6083 48.1455 83.4984 47.7459 83.4984 47.2686V38.4902Z" fill="#ABACBA"/>
<path opacity="0.6" d="M79.3051 42.497L78.379 42.7583C78.288 42.497 78.1593 42.2602 77.9926 42.0481C77.8259 41.836 77.6081 41.6674 77.3392 41.5424C77.074 41.4174 76.7445 41.3549 76.3505 41.3549C75.7596 41.3549 75.2748 41.4951 74.896 41.7754C74.5172 42.0557 74.3278 42.4174 74.3278 42.8606C74.3278 43.2356 74.4566 43.5405 74.7142 43.7754C74.9755 44.0065 75.3771 44.1902 75.9187 44.3265L77.2369 44.6504C77.968 44.8284 78.5153 45.1106 78.879 45.497C79.2464 45.8833 79.4301 46.3682 79.4301 46.9515C79.4301 47.444 79.2937 47.8815 79.021 48.264C78.7483 48.6466 78.3676 48.9477 77.879 49.1674C77.3941 49.3833 76.8316 49.4913 76.1915 49.4913C75.3392 49.4913 74.6365 49.3 74.0835 48.9174C73.5305 48.5311 73.1763 47.9743 73.021 47.247L73.9926 47.0083C74.1176 47.5273 74.3619 47.9193 74.7255 48.1845C75.093 48.4496 75.5759 48.5822 76.1744 48.5822C76.8449 48.5822 77.3808 48.4326 77.7824 48.1333C78.1839 47.8303 78.3846 47.4515 78.3846 46.997C78.3846 46.6447 78.2672 46.3493 78.0324 46.1106C77.7975 45.8682 77.4415 45.6902 76.9642 45.5765L75.538 45.2356C74.7805 45.0538 74.2199 44.7659 73.8562 44.372C73.4926 43.978 73.3108 43.4894 73.3108 42.9061C73.3108 42.425 73.4415 42.0027 73.7028 41.639C73.9642 41.2716 74.324 40.9837 74.7824 40.7754C75.2407 40.5671 75.7634 40.4629 76.3505 40.4629C77.1498 40.4629 77.788 40.6447 78.2653 41.0083C78.7464 41.3682 79.093 41.8644 79.3051 42.497Z" fill="#ABACBA"/>
<path opacity="0.6" d="M65.6926 49.5083C65.166 49.5083 64.685 49.4061 64.2494 49.2015C63.8138 48.9932 63.4672 48.694 63.2096 48.3038C62.952 47.9099 62.8232 47.4326 62.8232 46.872C62.8232 46.4402 62.9047 46.0765 63.0676 45.7811C63.2304 45.4856 63.4615 45.2432 63.7607 45.0538C64.06 44.8644 64.4142 44.7148 64.8232 44.6049C65.2323 44.4951 65.6831 44.4099 66.1755 44.3493C66.6642 44.2886 67.077 44.2356 67.4142 44.1902C67.7551 44.1447 68.0145 44.0727 68.1926 43.9743C68.3706 43.8758 68.4596 43.7167 68.4596 43.497V43.2924C68.4596 42.6977 68.2816 42.2299 67.9255 41.889C67.5732 41.5443 67.0657 41.372 66.4028 41.372C65.774 41.372 65.2607 41.5102 64.863 41.7868C64.4691 42.0633 64.1926 42.389 64.0335 42.764L63.0732 42.4174C63.2702 41.9402 63.5429 41.5595 63.8914 41.2754C64.2399 40.9875 64.6301 40.7811 65.0619 40.6561C65.4937 40.5273 65.9312 40.4629 66.3744 40.4629C66.7077 40.4629 67.0543 40.5065 67.4142 40.5936C67.7778 40.6807 68.1149 40.8322 68.4255 41.0481C68.7361 41.2602 68.988 41.5576 69.1812 41.9402C69.3744 42.319 69.471 42.8 69.471 43.3833V49.3095H68.4596V47.9288H68.3971C68.2759 48.1864 68.096 48.4364 67.8573 48.6788C67.6187 48.9212 67.3195 49.1201 66.9596 49.2754C66.5998 49.4307 66.1774 49.5083 65.6926 49.5083ZM65.8289 48.5822C66.3668 48.5822 66.8327 48.4629 67.2267 48.2243C67.6206 47.9856 67.9236 47.6693 68.1357 47.2754C68.3517 46.8777 68.4596 46.4402 68.4596 45.9629V44.7015C68.3838 44.7735 68.257 44.8379 68.0789 44.8947C67.9047 44.9515 67.702 45.0027 67.471 45.0481C67.2437 45.0898 67.0164 45.1258 66.7892 45.1561C66.5619 45.1864 66.3573 45.2129 66.1755 45.2356C65.6831 45.2962 65.2626 45.3909 64.9142 45.5197C64.5657 45.6485 64.2986 45.8265 64.113 46.0538C63.9274 46.2773 63.8346 46.5652 63.8346 46.9174C63.8346 47.4477 64.024 47.8587 64.4028 48.1504C64.7816 48.4383 65.257 48.5822 65.8289 48.5822Z" fill="#ABACBA"/>
<path opacity="0.6" d="M48.0918 37.6719H49.3191L53.5407 47.8082H53.6429L57.8645 37.6719H59.0918V49.3082H58.0918V39.9162H58.0009L54.0747 49.3082H53.1088L49.1827 39.9162H49.0918V49.3082H48.0918V37.6719Z" fill="#ABACBA"/>
<path opacity="0.6" d="M35.1184 49.3091V40.5819H36.1014V41.9228H36.1752C36.3495 41.4834 36.6525 41.1292 37.0843 40.8603C37.5199 40.5875 38.0123 40.4512 38.5616 40.4512C38.6449 40.4512 38.7377 40.4531 38.84 40.4569C38.9423 40.4606 39.0275 40.4644 39.0957 40.4682V41.4966C39.0502 41.4891 38.9707 41.4777 38.857 41.4625C38.7434 41.4474 38.6203 41.4398 38.4877 41.4398C38.0332 41.4398 37.6279 41.5364 37.2718 41.7296C36.9195 41.919 36.6411 42.1822 36.4366 42.5194C36.232 42.8565 36.1298 43.2409 36.1298 43.6728V49.3091H35.1184Z" fill="#ABACBA"/>
<path opacity="0.6" d="M30.1495 45.9741V40.582H31.1608V49.3093H30.1495V47.8604H30.0699C29.8654 48.3074 29.5415 48.6805 29.0983 48.9798C28.6551 49.2752 28.1135 49.4229 27.4733 49.4229C26.9165 49.4229 26.4222 49.3017 25.9904 49.0593C25.5585 48.8131 25.2195 48.4532 24.9733 47.9798C24.7271 47.5063 24.604 46.9248 24.604 46.2354V40.582H25.6154V46.1729C25.6154 46.8548 25.8161 47.404 26.2176 47.8207C26.6192 48.2335 27.1343 48.44 27.7631 48.44C28.157 48.44 28.5358 48.3453 28.8995 48.1559C29.2631 47.9665 29.5623 47.69 29.7972 47.3263C30.032 46.9589 30.1495 46.5082 30.1495 45.9741Z" fill="#ABACBA"/>
<path opacity="0.6" d="M20.9646 43.4909C20.9646 44.7031 20.7487 45.758 20.3169 46.6557C19.8851 47.5497 19.2904 48.2428 18.5328 48.7353C17.779 49.2239 16.9116 49.4682 15.9305 49.4682C14.9494 49.4682 14.0801 49.2239 13.3226 48.7353C12.5688 48.2428 11.976 47.5497 11.5441 46.6557C11.1161 45.758 10.9021 44.7031 10.9021 43.4909C10.9021 42.2788 11.1161 41.2258 11.5441 40.3319C11.976 39.4341 12.5707 38.7409 13.3282 38.2523C14.0858 37.7599 14.9532 37.5137 15.9305 37.5137C16.9116 37.5137 17.779 37.7599 18.5328 38.2523C19.2904 38.7409 19.8851 39.4341 20.3169 40.3319C20.7487 41.2258 20.9646 42.2788 20.9646 43.4909ZM19.9305 43.4909C19.9305 42.4493 19.7563 41.5572 19.4078 40.8148C19.0593 40.0686 18.5839 39.4985 17.9816 39.1046C17.3794 38.7106 16.6957 38.5137 15.9305 38.5137C15.1691 38.5137 14.4873 38.7106 13.8851 39.1046C13.2828 39.4985 12.8055 40.0667 12.4532 40.8091C12.1048 41.5516 11.9305 42.4455 11.9305 43.4909C11.9305 44.5326 12.1048 45.4247 12.4532 46.1671C12.8017 46.9095 13.2771 47.4796 13.8794 47.8773C14.4816 48.2712 15.1654 48.4682 15.9305 48.4682C16.6957 48.4682 17.3794 48.2712 17.9816 47.8773C18.5877 47.4834 19.065 46.9152 19.4135 46.1728C19.7619 45.4266 19.9343 44.5326 19.9305 43.4909Z" fill="#ABACBA"/>
<path opacity="0.6" d="M142.353 59.9821V65.4366H141.341V56.7093H142.324V58.0787H142.415C142.62 57.6317 142.938 57.2737 143.37 57.0048C143.805 56.7321 144.343 56.5957 144.983 56.5957C145.57 56.5957 146.086 56.7188 146.529 56.965C146.976 57.2074 147.322 57.5654 147.569 58.0389C147.819 58.5124 147.944 59.0938 147.944 59.7832V65.4366H146.932V59.8457C146.932 59.1298 146.731 58.5635 146.33 58.1468C145.932 57.7302 145.398 57.5218 144.728 57.5218C144.269 57.5218 143.862 57.6203 143.506 57.8173C143.15 58.0143 142.868 58.2984 142.66 58.6696C142.455 59.037 142.353 59.4745 142.353 59.9821Z" fill="#ABACBA"/>
<path opacity="0.6" d="M137.809 65.4357V56.7085H138.826V65.4357H137.809ZM138.326 55.2085C138.118 55.2085 137.94 55.1384 137.792 54.9982C137.645 54.8543 137.571 54.6819 137.571 54.4812C137.571 54.2804 137.645 54.11 137.792 53.9698C137.94 53.8259 138.118 53.7539 138.326 53.7539C138.535 53.7539 138.713 53.8259 138.861 53.9698C139.008 54.11 139.082 54.2804 139.082 54.4812C139.082 54.6819 139.008 54.8543 138.861 54.9982C138.713 55.1384 138.535 55.2085 138.326 55.2085Z" fill="#ABACBA"/>
<path opacity="0.6" d="M127.557 65.6183C126.803 65.6183 126.136 65.427 125.557 65.0444C124.981 64.6618 124.53 64.1334 124.204 63.4592C123.879 62.7811 123.716 61.9989 123.716 61.1126C123.716 60.2186 123.879 59.4326 124.204 58.7546C124.53 58.0728 124.981 57.5425 125.557 57.1637C126.136 56.7811 126.803 56.5898 127.557 56.5898C128.311 56.5898 128.975 56.7811 129.551 57.1637C130.127 57.5463 130.578 58.0766 130.903 58.7546C131.233 59.4326 131.398 60.2186 131.398 61.1126C131.398 61.9989 131.235 62.7811 130.909 63.4592C130.583 64.1334 130.131 64.6618 129.551 65.0444C128.975 65.427 128.311 65.6183 127.557 65.6183ZM127.557 64.6921C128.163 64.6921 128.676 64.5292 129.097 64.2035C129.517 63.8777 129.835 63.444 130.051 62.9023C130.271 62.3607 130.381 61.7641 130.381 61.1126C130.381 60.4611 130.271 59.8626 130.051 59.3171C129.835 58.7717 129.517 58.3342 129.097 58.0046C128.676 57.6751 128.163 57.5103 127.557 57.5103C126.954 57.5103 126.441 57.6751 126.017 58.0046C125.597 58.3342 125.276 58.7717 125.057 59.3171C124.841 59.8626 124.733 60.4611 124.733 61.1126C124.733 61.7641 124.841 62.3607 125.057 62.9023C125.276 63.444 125.597 63.8777 126.017 64.2035C126.437 64.5292 126.951 64.6921 127.557 64.6921Z" fill="#ABACBA"/>
<path opacity="0.6" d="M118.887 65.4361V56.7088H119.87V58.0497H119.944C120.118 57.6103 120.421 57.2562 120.853 56.9872C121.289 56.7145 121.781 56.5781 122.33 56.5781C122.414 56.5781 122.507 56.58 122.609 56.5838C122.711 56.5876 122.796 56.5914 122.864 56.5952V57.6236C122.819 57.616 122.739 57.6046 122.626 57.5895C122.512 57.5743 122.389 57.5668 122.257 57.5668C121.802 57.5668 121.397 57.6634 121.041 57.8565C120.688 58.0459 120.41 58.3092 120.205 58.6463C120.001 58.9834 119.899 59.3679 119.899 59.7997V65.4361H118.887Z" fill="#ABACBA"/>
<path opacity="0.6" d="M109.454 68.7092V56.7092H110.437V58.3739H110.556C110.677 58.1126 110.844 57.8455 111.056 57.5728C111.268 57.2963 111.548 57.0633 111.897 56.8739C112.249 56.6845 112.692 56.5898 113.226 56.5898C113.946 56.5898 114.575 56.7792 115.113 57.158C115.654 57.533 116.075 58.0595 116.374 58.7376C116.677 59.4118 116.829 60.1978 116.829 61.0955C116.829 61.997 116.677 62.7868 116.374 63.4648C116.075 64.1429 115.654 64.6713 115.113 65.0501C114.575 65.4289 113.95 65.6183 113.238 65.6183C112.711 65.6183 112.27 65.5236 111.914 65.3342C111.562 65.1448 111.276 64.9118 111.056 64.6353C110.84 64.355 110.673 64.0823 110.556 63.8171H110.465V68.7092H109.454ZM110.454 61.0785C110.454 61.783 110.558 62.408 110.766 62.9535C110.978 63.4951 111.281 63.9213 111.675 64.2319C112.073 64.5387 112.554 64.6921 113.118 64.6921C113.698 64.6921 114.187 64.533 114.584 64.2148C114.986 63.8929 115.291 63.4592 115.499 62.9137C115.711 62.3683 115.817 61.7565 115.817 61.0785C115.817 60.408 115.713 59.8039 115.505 59.266C115.3 58.7281 114.997 58.302 114.596 57.9876C114.194 57.6694 113.702 57.5103 113.118 57.5103C112.55 57.5103 112.067 57.6637 111.67 57.9705C111.272 58.2736 110.969 58.694 110.76 59.2319C110.556 59.766 110.454 60.3815 110.454 61.0785Z" fill="#ABACBA"/>
<path opacity="0.6" d="M98.8049 65.6353C98.2783 65.6353 97.7973 65.533 97.3617 65.3285C96.9261 65.1201 96.5795 64.8209 96.3219 64.4308C96.0643 64.0368 95.9355 63.5595 95.9355 62.9989C95.9355 62.5671 96.017 62.2035 96.1799 61.908C96.3427 61.6126 96.5738 61.3701 96.873 61.1808C97.1723 60.9914 97.5265 60.8417 97.9355 60.7319C98.3446 60.622 98.7954 60.5368 99.2878 60.4762C99.7765 60.4156 100.189 60.3626 100.526 60.3171C100.867 60.2717 101.127 60.1997 101.305 60.1012C101.483 60.0027 101.572 59.8436 101.572 59.6239V59.4194C101.572 58.8247 101.394 58.3569 101.038 58.016C100.686 57.6713 100.178 57.4989 99.5151 57.4989C98.8863 57.4989 98.373 57.6372 97.9753 57.9137C97.5814 58.1902 97.3049 58.516 97.1458 58.891L96.1855 58.5444C96.3825 58.0671 96.6552 57.6864 97.0037 57.4023C97.3522 57.1145 97.7424 56.908 98.1742 56.783C98.606 56.6542 99.0435 56.5898 99.4867 56.5898C99.82 56.5898 100.167 56.6334 100.526 56.7205C100.89 56.8076 101.227 56.9592 101.538 57.1751C101.848 57.3872 102.1 57.6845 102.293 58.0671C102.487 58.4459 102.583 58.927 102.583 59.5103V65.4364H101.572V64.0558H101.509C101.388 64.3133 101.208 64.5633 100.97 64.8058C100.731 65.0482 100.432 65.247 100.072 65.4023C99.7121 65.5576 99.2897 65.6353 98.8049 65.6353ZM98.9412 64.7092C99.4791 64.7092 99.945 64.5898 100.339 64.3512C100.733 64.1126 101.036 63.7963 101.248 63.4023C101.464 63.0046 101.572 62.5671 101.572 62.0898V60.8285C101.496 60.9005 101.369 60.9648 101.191 61.0217C101.017 61.0785 100.814 61.1296 100.583 61.1751C100.356 61.2167 100.129 61.2527 99.9015 61.283C99.6742 61.3133 99.4696 61.3398 99.2878 61.3626C98.7954 61.4232 98.3749 61.5179 98.0265 61.6467C97.678 61.7754 97.4109 61.9535 97.2253 62.1808C97.0397 62.4042 96.9469 62.6921 96.9469 63.0444C96.9469 63.5747 97.1363 63.9857 97.5151 64.2773C97.8939 64.5652 98.3693 64.7092 98.9412 64.7092Z" fill="#ABACBA"/>
<path opacity="0.6" d="M86.4187 65.6183C85.6043 65.6183 84.8997 65.4289 84.305 65.0501C83.7103 64.6675 83.2501 64.1391 82.9244 63.4648C82.6024 62.7868 82.4414 62.0065 82.4414 61.1239C82.4414 60.2451 82.6024 59.4648 82.9244 58.783C83.2501 58.0974 83.699 57.5614 84.271 57.1751C84.8467 56.7849 85.5115 56.5898 86.2653 56.5898C86.7388 56.5898 87.1952 56.677 87.6346 56.8512C88.074 57.0217 88.4679 57.2849 88.8164 57.641C89.1687 57.9933 89.4471 58.4383 89.6516 58.9762C89.8562 59.5103 89.9585 60.1429 89.9585 60.8739V61.3739H83.1403V60.4819H88.9244C88.9244 59.9213 88.8107 59.4175 88.5835 58.9705C88.36 58.5198 88.0475 58.1637 87.646 57.9023C87.2482 57.641 86.788 57.5103 86.2653 57.5103C85.7122 57.5103 85.2255 57.658 84.805 57.9535C84.3846 58.2489 84.055 58.6391 83.8164 59.1239C83.5816 59.6088 83.4622 60.1391 83.4585 60.7148V61.2489C83.4585 61.9421 83.5778 62.5482 83.8164 63.0671C84.0588 63.5823 84.4016 63.9819 84.8448 64.266C85.288 64.5501 85.8126 64.6921 86.4187 64.6921C86.8316 64.6921 87.1933 64.6277 87.5039 64.4989C87.8183 64.3701 88.0816 64.1978 88.2937 63.9819C88.5096 63.7622 88.6725 63.5217 88.7823 63.2603L89.7425 63.5728C89.61 63.9402 89.3922 64.2792 89.0891 64.5898C88.7899 64.9004 88.4149 65.1504 87.9641 65.3398C87.5172 65.5254 87.002 65.6183 86.4187 65.6183Z" fill="#ABACBA"/>
<path opacity="0.6" d="M69.3164 65.4366V56.7093H70.2994V58.0502H70.3903C70.5645 57.5995 70.8543 57.2453 71.2596 56.9877C71.6687 56.7264 72.1592 56.5957 72.7312 56.5957C73.3335 56.5957 73.8278 56.7377 74.2141 57.0218C74.6043 57.3021 74.896 57.6885 75.0891 58.1809H75.163C75.36 57.6961 75.68 57.3116 76.1232 57.0275C76.5702 56.7396 77.1119 56.5957 77.7482 56.5957C78.5588 56.5957 79.199 56.8514 79.6687 57.3627C80.1384 57.8703 80.3732 58.6127 80.3732 59.59V65.4366H79.3619V59.59C79.3619 58.9006 79.1857 58.3836 78.8335 58.0389C78.4812 57.6942 78.0172 57.5218 77.4414 57.5218C76.7747 57.5218 76.2615 57.7264 75.9016 58.1355C75.5418 58.5446 75.3619 59.0635 75.3619 59.6923V65.4366H74.3278V59.4991C74.3278 58.9082 74.163 58.4309 73.8335 58.0673C73.5039 57.7037 73.0399 57.5218 72.4414 57.5218C72.0399 57.5218 71.6781 57.6203 71.3562 57.8173C71.038 58.0143 70.7861 58.2889 70.6005 58.6412C70.4187 58.9896 70.3278 59.3912 70.3278 59.8457V65.4366H69.3164Z" fill="#ABACBA"/>
<path opacity="0.6" d="M63.4151 65.6183C62.6613 65.6183 61.9947 65.427 61.4151 65.0444C60.8394 64.6618 60.3886 64.1334 60.0629 63.4592C59.7371 62.7811 59.5742 61.9989 59.5742 61.1126C59.5742 60.2186 59.7371 59.4326 60.0629 58.7546C60.3886 58.0728 60.8394 57.5425 61.4151 57.1637C61.9947 56.7811 62.6613 56.5898 63.4151 56.5898C64.1689 56.5898 64.8337 56.7811 65.4094 57.1637C65.9852 57.5463 66.436 58.0766 66.7617 58.7546C67.0913 59.4326 67.256 60.2186 67.256 61.1126C67.256 61.9989 67.0932 62.7811 66.7674 63.4592C66.4416 64.1334 65.989 64.6618 65.4094 65.0444C64.8337 65.427 64.1689 65.6183 63.4151 65.6183ZM63.4151 64.6921C64.0212 64.6921 64.5344 64.5292 64.9549 64.2035C65.3754 63.8777 65.6935 63.444 65.9094 62.9023C66.1291 62.3607 66.239 61.7641 66.239 61.1126C66.239 60.4611 66.1291 59.8626 65.9094 59.3171C65.6935 58.7717 65.3754 58.3342 64.9549 58.0046C64.5344 57.6751 64.0212 57.5103 63.4151 57.5103C62.8129 57.5103 62.2996 57.6751 61.8754 58.0046C61.4549 58.3342 61.1348 58.7717 60.9151 59.3171C60.6992 59.8626 60.5913 60.4611 60.5913 61.1126C60.5913 61.7641 60.6992 62.3607 60.9151 62.9023C61.1348 63.444 61.4549 63.8777 61.8754 64.2035C62.2958 64.5292 62.8091 64.6921 63.4151 64.6921Z" fill="#ABACBA"/>
<path opacity="0.6" d="M54.6861 65.6183C53.9058 65.6183 53.2259 65.4232 52.6463 65.033C52.0705 64.6429 51.6236 64.1088 51.3054 63.4308C50.9872 62.7527 50.8281 61.98 50.8281 61.1126C50.8281 60.2376 50.9891 59.4592 51.3111 58.7773C51.6368 58.0955 52.0876 57.5614 52.6634 57.1751C53.2391 56.7849 53.9077 56.5898 54.669 56.5898C55.2524 56.5898 55.7808 56.7035 56.2543 56.9308C56.7277 57.1542 57.1179 57.4705 57.4247 57.8796C57.7353 58.2849 57.9304 58.7584 58.0099 59.3001H56.9872C56.8812 58.8076 56.6255 58.3872 56.2202 58.0387C55.8187 57.6864 55.3073 57.5103 54.6861 57.5103C54.1293 57.5103 53.6368 57.6618 53.2088 57.9648C52.7808 58.2641 52.4455 58.6826 52.2031 59.2205C51.9645 59.7546 51.8452 60.3739 51.8452 61.0785C51.8452 61.7868 51.9626 62.4137 52.1974 62.9592C52.4323 63.5008 52.7618 63.9251 53.1861 64.2319C53.6141 64.5387 54.1141 64.6921 54.6861 64.6921C55.0724 64.6921 55.4247 64.6201 55.7429 64.4762C56.0649 64.3285 56.3338 64.1201 56.5497 63.8512C56.7694 63.5823 56.9171 63.2622 56.9929 62.891H58.0156C57.9399 63.4175 57.7524 63.8872 57.4531 64.3001C57.1577 64.7092 56.7732 65.0311 56.2997 65.266C55.83 65.5008 55.2921 65.6183 54.6861 65.6183Z" fill="#ABACBA"/>
<path opacity="0.6" d="M45.6682 65.6183C44.8538 65.6183 44.1493 65.4289 43.5546 65.0501C42.9599 64.6675 42.4996 64.1391 42.1739 63.4648C41.8519 62.7868 41.6909 62.0065 41.6909 61.1239C41.6909 60.2451 41.8519 59.4648 42.1739 58.783C42.4996 58.0974 42.9485 57.5614 43.5205 57.1751C44.0962 56.7849 44.761 56.5898 45.5148 56.5898C45.9883 56.5898 46.4447 56.677 46.8841 56.8512C47.3235 57.0217 47.7174 57.2849 48.0659 57.641C48.4182 57.9933 48.6966 58.4383 48.9011 58.9762C49.1057 59.5103 49.208 60.1429 49.208 60.8739V61.3739H42.3898V60.4819H48.1739C48.1739 59.9213 48.0602 59.4175 47.833 58.9705C47.6095 58.5198 47.297 58.1637 46.8955 57.9023C46.4977 57.641 46.0375 57.5103 45.5148 57.5103C44.9618 57.5103 44.475 57.658 44.0546 57.9535C43.6341 58.2489 43.3046 58.6391 43.0659 59.1239C42.8311 59.6088 42.7117 60.1391 42.708 60.7148V61.2489C42.708 61.9421 42.8273 62.5482 43.0659 63.0671C43.3083 63.5823 43.6511 63.9819 44.0943 64.266C44.5375 64.5501 45.0621 64.6921 45.6682 64.6921C46.0811 64.6921 46.4428 64.6277 46.7534 64.4989C47.0678 64.3701 47.3311 64.1978 47.5432 63.9819C47.7591 63.7622 47.922 63.5217 48.0318 63.2603L48.9921 63.5728C48.8595 63.9402 48.6417 64.2792 48.3386 64.5898C48.0394 64.9004 47.6644 65.1504 47.2136 65.3398C46.7667 65.5254 46.2515 65.6183 45.6682 65.6183Z" fill="#ABACBA"/>
<path opacity="0.6" d="M32.6978 65.4352V53.7988H33.7148V58.3727H33.8057C33.9193 58.1113 34.0822 57.8424 34.2943 57.5659C34.5103 57.2894 34.7924 57.0583 35.1409 56.8727C35.4932 56.6833 35.9364 56.5886 36.4705 56.5886C37.1864 56.5886 37.8152 56.778 38.3568 57.1568C38.8985 57.5318 39.3209 58.0583 39.6239 58.7363C39.9269 59.4106 40.0784 60.1966 40.0784 61.0943C40.0784 61.9958 39.9269 62.7856 39.6239 63.4636C39.3246 64.1416 38.9042 64.67 38.3625 65.0488C37.8246 65.4276 37.1996 65.617 36.4875 65.617C35.9572 65.617 35.514 65.5223 35.158 65.3329C34.8057 65.1435 34.5216 64.9106 34.3057 64.6341C34.0898 64.3538 33.9231 64.081 33.8057 63.8159H33.6807V65.4352H32.6978ZM33.6978 61.0772C33.6978 61.7818 33.8019 62.4068 34.0103 62.9522C34.2224 63.4939 34.5254 63.92 34.9193 64.2306C35.3171 64.5375 35.7981 64.6909 36.3625 64.6909C36.9421 64.6909 37.4326 64.5318 37.8341 64.2136C38.2356 63.8916 38.5406 63.4579 38.7489 62.9125C38.9572 62.367 39.0614 61.7553 39.0614 61.0772C39.0614 60.4068 38.9572 59.8026 38.7489 59.2647C38.5443 58.7269 38.2413 58.3007 37.8398 57.9863C37.4383 57.6681 36.9459 57.5091 36.3625 57.5091C35.7943 57.5091 35.3114 57.6625 34.9137 57.9693C34.5197 58.2723 34.2186 58.6928 34.0103 59.2306C33.8019 59.7647 33.6978 60.3803 33.6978 61.0772Z" fill="#ABACBA"/>
<path opacity="0.6" d="M21.6368 65.617C20.9209 65.617 20.294 65.4276 19.7561 65.0488C19.2182 64.67 18.7978 64.1416 18.4948 63.4636C18.1955 62.7856 18.0459 61.9958 18.0459 61.0943C18.0459 60.1966 18.1955 59.4106 18.4948 58.7363C18.7978 58.0583 19.2201 57.5318 19.7618 57.1568C20.3035 56.778 20.9342 56.5886 21.6539 56.5886C22.1842 56.5886 22.6254 56.6833 22.9777 56.8727C23.33 57.0583 23.6122 57.2894 23.8243 57.5659C24.0364 57.8424 24.2012 58.1113 24.3186 58.3727H24.4095V53.7988H25.4266V65.4352H24.4379V63.8159H24.3186C24.2012 64.081 24.0345 64.3538 23.8186 64.6341C23.6027 64.9106 23.3167 65.1435 22.9607 65.3329C22.6084 65.5223 22.1671 65.617 21.6368 65.617ZM21.7561 64.6909C22.3205 64.6909 22.8016 64.5375 23.1993 64.2306C23.597 63.92 23.9001 63.4939 24.1084 62.9522C24.3205 62.4068 24.4266 61.7818 24.4266 61.0772C24.4266 60.3803 24.3224 59.7647 24.1141 59.2306C23.9057 58.6928 23.6027 58.2723 23.205 57.9693C22.8073 57.6625 22.3243 57.5091 21.7561 57.5091C21.1728 57.5091 20.6804 57.6681 20.2789 57.9863C19.8811 58.3007 19.5781 58.7269 19.3698 59.2647C19.1652 59.8026 19.0629 60.4068 19.0629 61.0772C19.0629 61.7553 19.1671 62.367 19.3754 62.9125C19.5838 63.4579 19.8868 63.8916 20.2845 64.2136C20.686 64.5318 21.1766 64.6909 21.7561 64.6909Z" fill="#ABACBA"/>
<path opacity="0.6" d="M10.4005 59.9821V65.4366H9.38916V56.7093H10.3721V58.0787H10.463C10.6676 57.6317 10.9858 57.2737 11.4176 57.0048C11.8532 56.7321 12.3911 56.5957 13.0312 56.5957C13.6183 56.5957 14.1335 56.7188 14.5767 56.965C15.0236 57.2074 15.3702 57.5654 15.6164 58.0389C15.8664 58.5124 15.9914 59.0938 15.9914 59.7832V65.4366H14.9801V59.8457C14.9801 59.1298 14.7793 58.5635 14.3778 58.1468C13.9801 57.7302 13.446 57.5218 12.7755 57.5218C12.3172 57.5218 11.91 57.6203 11.5539 57.8173C11.1979 58.0143 10.9157 58.2984 10.7073 58.6696C10.5028 59.037 10.4005 59.4745 10.4005 59.9821Z" fill="#ABACBA"/>
<path opacity="0.6" d="M3.0805 65.6353C2.55398 65.6353 2.07292 65.533 1.63732 65.3285C1.20171 65.1201 0.855121 64.8209 0.597545 64.4308C0.33997 64.0368 0.211182 63.5595 0.211182 62.9989C0.211182 62.5671 0.292621 62.2035 0.4555 61.908C0.618379 61.6126 0.849439 61.3701 1.14868 61.1808C1.44792 60.9914 1.80209 60.8417 2.21118 60.7319C2.62027 60.622 3.07103 60.5368 3.56345 60.4762C4.05209 60.4156 4.46497 60.3626 4.80209 60.3171C5.143 60.2717 5.40247 60.1997 5.5805 60.1012C5.75853 60.0027 5.84755 59.8436 5.84755 59.6239V59.4194C5.84755 58.8247 5.66952 58.3569 5.31345 58.016C4.96118 57.6713 4.45361 57.4989 3.79073 57.4989C3.16194 57.4989 2.64868 57.6372 2.25095 57.9137C1.85702 58.1902 1.5805 58.516 1.42141 58.891L0.461182 58.5444C0.658151 58.0671 0.930879 57.6864 1.27936 57.4023C1.62785 57.1145 2.018 56.908 2.44982 56.783C2.88164 56.6542 3.31914 56.5898 3.76232 56.5898C4.09565 56.5898 4.44224 56.6334 4.80209 56.7205C5.16573 56.8076 5.50285 56.9592 5.81345 57.1751C6.12406 57.3872 6.37595 57.6845 6.56914 58.0671C6.76232 58.4459 6.85891 58.927 6.85891 59.5103V65.4364H5.84755V64.0558H5.78505C5.66383 64.3133 5.48391 64.5633 5.24527 64.8058C5.00664 65.0482 4.70739 65.247 4.34755 65.4023C3.9877 65.5576 3.56535 65.6353 3.0805 65.6353ZM3.21686 64.7092C3.75474 64.7092 4.22065 64.5898 4.61459 64.3512C5.00853 64.1126 5.31156 63.7963 5.52368 63.4023C5.73959 63.0046 5.84755 62.5671 5.84755 62.0898V60.8285C5.77179 60.9005 5.64489 60.9648 5.46686 61.0217C5.29262 61.0785 5.08997 61.1296 4.85891 61.1751C4.63164 61.2167 4.40436 61.2527 4.17709 61.283C3.94982 61.3133 3.74527 61.3398 3.56345 61.3626C3.07103 61.4232 2.65058 61.5179 2.30209 61.6467C1.95361 61.7754 1.68656 61.9535 1.50095 62.1808C1.31535 62.4042 1.22255 62.6921 1.22255 63.0444C1.22255 63.5747 1.41194 63.9857 1.79073 64.2773C2.16952 64.5652 2.64489 64.7092 3.21686 64.7092Z" fill="#ABACBA"/>
</svg>
