<svg width="24" height="24" viewBox="0 0 24 24" fill="none" xmlns="http://www.w3.org/2000/svg">
<path d="M22.4299 8.97197H20.972C20.1869 8.97197 19.514 8.29906 19.514 7.51402C19.514 3.36449 16.1495 0 12 0H7.51401C3.36448 0 0 3.36449 0 7.51402V16.486C0 20.6355 3.36448 24 7.51401 24H16.486C20.6355 24 24 20.6355 24 16.486V10.542C24 9.64481 23.3271 8.97197 22.4299 8.97197ZM7.40187 6.05608H12.7851C13.5701 6.05608 14.2429 6.72897 14.2429 7.51402C14.2429 8.29906 13.5701 8.97197 12.7851 8.97197H7.40187C6.61683 8.97197 5.94392 8.29906 5.94392 7.51402C5.94392 6.72897 6.61683 6.05608 7.40187 6.05608ZM16.5981 17.9439H7.51401C6.72897 17.9439 6.05608 17.2711 6.05608 16.486C6.05608 15.7009 6.72897 15.028 7.51401 15.028H16.5981C17.3832 15.028 18.0561 15.7009 18.0561 16.486C18.0561 17.2711 17.3832 17.9439 16.5981 17.9439Z" fill="white"/>
</svg>
